<svg width="17" height="18" viewBox="0 0 17 18" fill="none" xmlns="http://www.w3.org/2000/svg">
<path fill-rule="evenodd" clip-rule="evenodd" d="M2.08571 18H14.6857C15.6784 18 16.4857 17.1927 16.4857 16.2V2.7C16.4857 1.7073 15.6784 0.9 14.6857 0.9H12.8857C12.8857 0.4023 12.4834 0 11.9857 0H4.78571C4.28801 0 3.88571 0.4023 3.88571 0.9H2.08571C1.09301 0.9 0.285706 1.7073 0.285706 2.7V16.2C0.285706 17.1927 1.09301 18 2.08571 18ZM2.08571 2.7H3.88571V4.5H12.8857V2.7H14.6857V16.2H2.08571V2.7ZM5.87201 8.8137L7.48571 10.4274L10.8994 7.0137L12.172 8.2863L7.48571 12.9726L4.59941 10.0863L5.87201 8.8137Z" fill="#435971"/>
<path fill-rule="evenodd" clip-rule="evenodd" d="M2.08571 18H14.6857C15.6784 18 16.4857 17.1927 16.4857 16.2V2.7C16.4857 1.7073 15.6784 0.9 14.6857 0.9H12.8857C12.8857 0.4023 12.4834 0 11.9857 0H4.78571C4.28801 0 3.88571 0.4023 3.88571 0.9H2.08571C1.09301 0.9 0.285706 1.7073 0.285706 2.7V16.2C0.285706 17.1927 1.09301 18 2.08571 18ZM2.08571 2.7H3.88571V4.5H12.8857V2.7H14.6857V16.2H2.08571V2.7ZM5.87201 8.8137L7.48571 10.4274L10.8994 7.0137L12.172 8.2863L7.48571 12.9726L4.59941 10.0863L5.87201 8.8137Z" fill="white" fill-opacity="0.4"/>
</svg>
