<svg width="27" height="28" viewBox="0 0 27 28" fill="none" xmlns="http://www.w3.org/2000/svg">
<path fill-rule="evenodd" clip-rule="evenodd" d="M15.6858 20.4274V17.2C15.6858 14.3047 13.7193 11.8657 11.0553 11.1322C10.7916 10.468 10.1472 10 9.38577 10C8.62437 10 7.97997 10.468 7.71627 11.1322C5.05227 11.8666 3.08577 14.3047 3.08577 17.2V20.4274L1.54947 21.9637C1.38027 22.132 1.28577 22.3606 1.28577 22.6V24.4C1.28577 24.8977 1.68807 25.3 2.18577 25.3H16.5858C17.0835 25.3 17.4858 24.8977 17.4858 24.4V22.6C17.4858 22.3606 17.3913 22.132 17.2221 21.9637L15.6858 20.4274ZM15.6858 23.5H3.08577V22.9726L4.62207 21.4363C4.79127 21.268 4.88577 21.0394 4.88577 20.8V17.2C4.88577 14.7187 6.90447 12.7 9.38577 12.7C11.8671 12.7 13.8858 14.7187 13.8858 17.2V20.8C13.8858 21.0394 13.9803 21.268 14.1495 21.4363L15.6858 22.9726V23.5ZM9.38577 28C10.5657 28 11.5521 27.2494 11.922 26.2H6.84957C7.21947 27.2494 8.20587 28 9.38577 28Z" fill="#435971"/>
<path fill-rule="evenodd" clip-rule="evenodd" d="M15.6858 20.4274V17.2C15.6858 14.3047 13.7193 11.8657 11.0553 11.1322C10.7916 10.468 10.1472 10 9.38577 10C8.62437 10 7.97997 10.468 7.71627 11.1322C5.05227 11.8666 3.08577 14.3047 3.08577 17.2V20.4274L1.54947 21.9637C1.38027 22.132 1.28577 22.3606 1.28577 22.6V24.4C1.28577 24.8977 1.68807 25.3 2.18577 25.3H16.5858C17.0835 25.3 17.4858 24.8977 17.4858 24.4V22.6C17.4858 22.3606 17.3913 22.132 17.2221 21.9637L15.6858 20.4274ZM15.6858 23.5H3.08577V22.9726L4.62207 21.4363C4.79127 21.268 4.88577 21.0394 4.88577 20.8V17.2C4.88577 14.7187 6.90447 12.7 9.38577 12.7C11.8671 12.7 13.8858 14.7187 13.8858 17.2V20.8C13.8858 21.0394 13.9803 21.268 14.1495 21.4363L15.6858 22.9726V23.5ZM9.38577 28C10.5657 28 11.5521 27.2494 11.922 26.2H6.84957C7.21947 27.2494 8.20587 28 9.38577 28Z" fill="white" fill-opacity="0.2"/>
<circle cx="18" cy="11" r="9" fill="#FF3E1D"/>
</svg>
