<svg aria-hidden="true" style="position: absolute; width: 0; height: 0; overflow: hidden;" version="1.1" xmlns="http://www.w3.org/2000/svg" xmlns:xlink="http://www.w3.org/1999/xlink">
<defs>
<symbol id="hooks" viewBox="0 0 32 32">
<path d="M16 0c-8.711 0-15.796 6.961-15.995 15.624 0.185-7.558 5.932-13.624 12.995-13.624 7.18 0 13 6.268 13 14 0 1.657 1.343 3 3 3s3-1.343 3-3c0-8.837-7.163-16-16-16zM16 32c8.711 0 15.796-6.961 15.995-15.624-0.185 7.558-5.932 13.624-12.995 13.624-7.18 0-13-6.268-13-14 0-1.657-1.343-3-3-3s-3 1.343-3 3c0 8.837 7.163 16 16 16z"></path>
</symbol>
<symbol id="contacts_redux" viewBox="0 0 32 32">
<path fill="#764abc" style="fill: var(--color2, #764abc)" d="M22.177 22.005c1.159-0.1 2.057-1.12 1.999-2.339-0.061-1.219-1.060-2.197-2.277-2.197h-0.081c-1.257 0.041-2.237 1.099-2.197 2.359 0.040 0.639 0.301 1.159 0.659 1.537-1.397 2.717-3.495 4.715-6.672 6.393-2.137 1.117-4.395 1.539-6.592 1.239-1.837-0.259-3.275-1.080-4.155-2.397-1.317-1.999-1.437-4.155-0.34-6.312 0.801-1.559 1.999-2.697 2.799-3.257-0.2-0.519-0.44-1.397-0.56-2.056-5.915 4.236-5.313 10.028-3.516 12.765 1.339 1.997 4.076 3.275 7.072 3.275 0.799 0 1.639-0.059 2.457-0.259 5.195-0.999 9.129-4.115 11.387-8.709zM29.308 17.011c-3.095-3.636-7.651-5.633-12.845-5.633h-0.68c-0.337-0.739-1.116-1.199-1.996-1.199h-0.060c-1.257 0-2.237 1.080-2.196 2.337 0.040 1.197 1.059 2.197 2.277 2.197h0.099c0.9-0.040 1.679-0.6 1.997-1.399h0.74c3.079 0 5.993 0.899 8.651 2.656 2.036 1.339 3.496 3.096 4.315 5.195 0.717 1.717 0.679 3.396-0.060 4.796-1.139 2.196-3.057 3.356-5.593 3.356-1.599 0-3.156-0.5-3.956-0.859-0.479 0.397-1.279 1.057-1.859 1.457 1.757 0.797 3.536 1.257 5.253 1.257 3.896 0 6.791-2.196 7.891-4.315 1.197-2.397 1.099-6.432-1.959-9.888zM8.653 22.723c0.039 1.199 1.057 2.197 2.277 2.197h0.080c1.279-0.040 2.257-1.097 2.197-2.357 0-1.199-1.039-2.196-2.257-2.196h-0.081c-0.080 0-0.199 0-0.3 0.039-1.657-2.797-2.357-5.795-2.096-9.028 0.159-2.437 0.959-4.556 2.396-6.313 1.199-1.499 3.456-2.239 4.995-2.277 4.315-0.081 6.113 5.295 6.252 7.432l1.997 0.599c-0.46-6.552-4.533-9.989-8.429-9.989-3.656 0-7.031 2.657-8.391 6.553-1.857 5.195-0.639 10.188 1.639 14.184-0.199 0.26-0.319 0.719-0.279 1.157z"></path>
</symbol>
<symbol id="routing" viewBox="0 0 33 32">
<path d="M31.625 13.938c-0.508 0-1.731 0.563-2.603 1h-1.985c-0.12-2.543-1.141-4.845-2.755-6.6l1.312-1.313c0.932-0.305 2.302-0.799 2.679-1.176 0.586-0.586 0.586-1.536 0-2.122s-1.535-0.585-2.121 0c-0.359 0.359-0.826 1.624-1.133 2.548l-1.403 1.402c-1.763-1.605-4.070-2.612-6.616-2.718v-1.857c0.442-0.875 1.062-2.194 1.062-2.727 0-0.828-0.672-1.5-1.5-1.5s-1.5 0.672-1.5 1.5c0 0.508 0.563 1.731 1 2.603v1.985c-2.543 0.12-4.846 1.14-6.601 2.755l-1.312-1.313c-0.305-0.932-0.8-2.303-1.177-2.68-0.585-0.585-1.535-0.585-2.121 0s-0.586 1.536 0 2.122c0.359 0.36 1.623 0.826 2.547 1.133l1.403 1.403c-1.591 1.749-2.594 4.033-2.713 6.554h-1.985c-0.871-0.437-2.094-1-2.603-1-0.829 0-1.5 0.672-1.5 1.5s0.671 1.5 1.5 1.5c0.533 0 1.852-0.62 2.727-1.062h1.858c0.105 2.546 1.113 4.853 2.717 6.616l-1.402 1.403c-0.925 0.307-2.188 0.773-2.548 1.133-0.586 0.586-0.586 1.536 0 2.121 0.586 0.586 1.536 0.586 2.121 0 0.377-0.376 0.871-1.746 1.177-2.678l1.313-1.313c1.755 1.614 4.057 2.635 6.6 2.755v1.985c-0.437 0.871-1 2.095-1 2.603 0 0.828 0.672 1.5 1.5 1.5s1.5-0.672 1.5-1.5c0-0.533-0.62-1.852-1.062-2.727v-1.858c2.546-0.104 4.853-1.112 6.616-2.716l1.403 1.402c0.307 0.924 0.773 2.188 1.133 2.547 0.586 0.586 1.535 0.586 2.121 0s0.586-1.535 0-2.121c-0.377-0.377-1.747-0.871-2.679-1.177l-1.312-1.312c1.628-1.77 2.652-4.095 2.758-6.663h1.858c0.875 0.443 2.193 1.062 2.727 1.062 0.828 0 1.5-0.672 1.5-1.5s-0.673-1.499-1.501-1.499zM10.215 9.798l3.552 3.552c-0.342 0.457-0.569 0.997-0.655 1.587h-5.024c0.115-1.969 0.896-3.755 2.127-5.139zM8.084 15.875h5.022c0.078 0.615 0.308 1.178 0.662 1.65l-3.553 3.552c-1.243-1.398-2.028-3.208-2.131-5.202zM16.062 23.912c-1.992-0.116-3.795-0.914-5.186-2.17l3.55-3.55c0.467 0.362 1.023 0.606 1.636 0.694v5.026zM16.062 11.988c-0.613 0.088-1.169 0.333-1.636 0.695l-3.55-3.55c1.391-1.255 3.194-2.054 5.186-2.17v5.025zM25.037 14.938h-5.025c-0.088-0.612-0.332-1.169-0.694-1.636l3.55-3.55c1.255 1.39 2.053 3.194 2.169 5.186zM22.202 9.090l-3.552 3.553c-0.473-0.354-1.035-0.584-1.65-0.662v-5.022c1.994 0.103 3.804 0.888 5.202 2.131zM17 23.915v-5.021c0.615-0.078 1.178-0.308 1.65-0.661l3.552 3.552c-1.398 1.243-3.208 2.028-5.202 2.13zM22.867 21.123l-3.55-3.55c0.375-0.482 0.621-1.062 0.701-1.698h5.021c-0.101 2.017-0.903 3.844-2.172 5.248z"></path>
</symbol>
<symbol id="cv" viewBox="0 0 32 32">
<path d="M18 3c0 1.657-1.343 3-3 3s-3-1.343-3-3c0-1.657 1.343-3 3-3s3 1.343 3 3z"></path>
<path d="M18 8h-6c-1.105 0-2 0.895-2 2v10h2v12h2.5v-12h1v12h2.5v-12h2v-10c0-1.105-0.895-2-2-2z"></path>
</symbol>
<symbol id="moviesearch" viewBox="0 0 32 32">
<path d="M27 17.047l-5-2.003v-4.008l5-2.004c0.553 0 1 0.449 1 1.002v6.012c0 0.553-0.447 1.001-1 1.001zM17.5 10.033c-2.485 0-4.5-2.019-4.5-4.509s2.015-4.509 4.5-4.509 4.5 2.019 4.5 4.509c0 2.491-2.015 4.509-4.5 4.509zM8.5 10.033c-2.485 0-4.5-2.019-4.5-4.509s2.015-4.509 4.5-4.509 4.5 2.019 4.5 4.509c0 2.491-2.015 4.509-4.5 4.509zM21 10.033v9.018h-5.582c-0.052 0.832-0.416 1.549-0.957 1.955h0.564l3.989 8.996h-0.994l-1.33-3h-2.66v4.998h-0.997v-4.998h-2.702l-1.351 3h-0.995l4.052-8.996h0.377c-0.541-0.406-0.905-1.123-0.957-1.955h-6.457v-9.018h16zM13.032 21.316c-0.041-0.010-0.079-0.031-0.119-0.045l-2.132 4.732h2.251v-4.687zM14.029 21.244v4.76h2.217l-2.126-4.795c-0.029 0.014-0.059 0.023-0.091 0.035z"></path>
</symbol>
<symbol id="stylization" viewBox="0 0 32 32">
<path d="M27.555 8.42c-1.355 1.647-5.070 6.195-8.021 9.81l-3.747-3.804c3.389-3.016 7.584-6.744 9.1-8.079 2.697-2.377 5.062-3.791 5.576-3.213 0.322 0.32-0.533 2.396-2.908 5.286zM18.879 19.030c-1.143 1.399-2.127 2.604-2.729 3.343l-4.436-4.323c0.719-0.64 1.916-1.705 3.304-2.939l3.861 3.919zM15.489 23.183v-0.012c-2.575 9.88-14.018 4.2-14.018 4.2s4.801 0.605 4.801-3.873c0-4.341 4.412-4.733 4.683-4.753l4.543 4.427c0 0.001-0.009 0.011-0.009 0.011z"></path>
</symbol>
<symbol id="chuck_norris" viewBox="0 0 32 32">
<path d="M16 0c-8.837 0-16 7.163-16 16s7.163 16 16 16 16-7.163 16-16-7.163-16-16-16zM22 8c1.105 0 2 0.895 2 2s-0.895 2-2 2-2-0.895-2-2 0.895-2 2-2zM10 8c1.105 0 2 0.895 2 2s-0.895 2-2 2-2-0.895-2-2 0.895-2 2-2zM16.994 21.23c-0.039-0.035-0.078-0.072-0.115-0.109-0.586-0.586-0.878-1.353-0.879-2.121-0 0.768-0.293 1.535-0.879 2.121-0.038 0.038-0.076 0.074-0.115 0.109-2.704 2.453-9.006-0.058-9.006-3.23 1.938 1.25 3.452 0.306 4.879-1.121 1.172-1.172 3.071-1.172 4.243 0 0.586 0.586 0.879 1.353 0.879 2.121 0-0.768 0.293-1.535 0.879-2.121 1.172-1.172 3.071-1.172 4.243 0 1.427 1.427 2.941 2.371 4.879 1.121 0 3.173-6.302 5.684-9.006 3.23z"></path>
</symbol>
<symbol id="todolist" viewBox="0 0 32 32">
<path d="M0 0h8v8h-8zM12 2h20v4h-20zM0 12h8v8h-8zM12 14h20v4h-20zM0 24h8v8h-8zM12 26h20v4h-20z"></path>
</symbol>
<symbol id="image_finder" viewBox="0 0 36 32">
<path d="M34 4h-2v-2c0-1.1-0.9-2-2-2h-28c-1.1 0-2 0.9-2 2v24c0 1.1 0.9 2 2 2h2v2c0 1.1 0.9 2 2 2h28c1.1 0 2-0.9 2-2v-24c0-1.1-0.9-2-2-2zM4 6v20h-1.996c-0.001-0.001-0.003-0.002-0.004-0.004v-23.993c0.001-0.001 0.002-0.003 0.004-0.004h27.993c0.001 0.001 0.003 0.002 0.004 0.004v1.996h-24c-1.1 0-2 0.9-2 2v0zM34 29.996c-0.001 0.001-0.002 0.003-0.004 0.004h-27.993c-0.001-0.001-0.003-0.002-0.004-0.004v-23.993c0.001-0.001 0.002-0.003 0.004-0.004h27.993c0.001 0.001 0.003 0.002 0.004 0.004v23.993z"></path>
<path d="M30 11c0 1.657-1.343 3-3 3s-3-1.343-3-3 1.343-3 3-3 3 1.343 3 3z"></path>
<path d="M32 28h-24v-4l7-12 8 10h2l7-6z"></path>
</symbol>
<symbol id="dogs" viewBox="0 0 26 28">
<path d="M12.187 7.375c0 1.75-0.906 3.828-2.922 3.828-2.531 0-4.062-3.187-4.062-5.375 0-1.75 0.906-3.828 2.922-3.828 2.547 0 4.062 3.187 4.062 5.375zM6.844 14.922c0 1.516-0.797 3.094-2.516 3.094-2.5 0-4.328-3.063-4.328-5.328 0-1.516 0.812-3.109 2.516-3.109 2.5 0 4.328 3.078 4.328 5.344zM13 14.5c3.828 0 9 5.516 9 9.203 0 1.984-1.625 2.297-3.219 2.297-2.094 0-3.781-1.406-5.781-1.406-2.094 0-3.875 1.391-6.141 1.391-1.516 0-2.859-0.516-2.859-2.281 0-3.703 5.172-9.203 9-9.203zM16.734 11.203c-2.016 0-2.922-2.078-2.922-3.828 0-2.188 1.516-5.375 4.062-5.375 2.016 0 2.922 2.078 2.922 3.828 0 2.188-1.531 5.375-4.062 5.375zM23.484 9.578c1.703 0 2.516 1.594 2.516 3.109 0 2.266-1.828 5.328-4.328 5.328-1.719 0-2.516-1.578-2.516-3.094 0-2.266 1.828-5.344 4.328-5.344z"></path>
</symbol>
<symbol id="forms" viewBox="0 0 32 32">
<path d="M24.323 16.947v-14.102h-21.046v26.307h9.68c0.694 0 1.264 0.57 1.264 1.264s-0.57 1.264-1.264 1.264h-10.944c-0.694 0-1.264-0.57-1.264-1.264v-28.832c0.003-0.694 0.57-1.264 1.264-1.264h23.571c0.694 0 1.264 0.57 1.264 1.264v15.363c0 0.694-0.57 1.264-1.264 1.264s-1.261-0.57-1.261-1.264zM30.826 20.019c-0.525-0.464-1.325-0.422-1.789 0.106l-6.925 7.702-3.472-3.344c-0.506-0.483-1.306-0.464-1.789 0.042s-0.464 1.306 0.042 1.789l4.419 4.253c0.23 0.23 0.547 0.358 0.883 0.358 0.022 0 0.022 0 0.042 0 0.336-0.022 0.672-0.17 0.883-0.422l7.789-8.672c0.486-0.547 0.445-1.347-0.083-1.811zM19.693 7.686h-11.366c-0.694 0-1.264 0.57-1.264 1.264s0.57 1.264 1.264 1.264h11.366c0.694 0 1.264-0.57 1.264-1.264s-0.57-1.264-1.264-1.264zM20.957 15.894c0-0.694-0.57-1.264-1.264-1.264h-11.366c-0.694 0-1.264 0.57-1.264 1.264s0.57 1.264 1.264 1.264h11.366c0.694 0 1.264-0.57 1.264-1.264zM8.326 21.366c-0.694 0-1.264 0.57-1.264 1.264s0.57 1.264 1.264 1.264h3.366c0.694 0 1.264-0.57 1.264-1.264s-0.57-1.264-1.264-1.264h-3.366z"></path>
</symbol>
<symbol id="icons" viewBox="0 0 32 32">
<path fill="#8592a3" style="fill: var(--color1, #8592a3)" d="M14.612 0.667l-5.723 7.154-5.723-7.154c-0.473-0.59-1.268-0.816-1.977-0.567-0.711 0.251-1.189 0.923-1.189 1.678v26.667c0 1.961 1.595 3.556 3.556 3.556h24.889c1.961 0 3.556-1.595 3.556-3.556v-26.667c0-0.756-0.478-1.428-1.189-1.678-0.711-0.245-1.504-0.021-1.977 0.567l-5.723 7.154-5.723-7.154c-0.677-0.843-2.1-0.843-2.777 0zM3.556 28.444v-3.556h24.891v3.556h-24.891zM21.723 11.778c0.677 0.844 2.101 0.844 2.779 0l3.943-4.932 0.002 14.487h-24.891v-14.487l3.945 4.932c0.677 0.844 2.101 0.844 2.779 0l5.721-7.154 5.723 7.154z"></path>
<path fill="#000" style="fill: var(--color2, #000)" opacity="0.1" d="M14.612 0.667l-5.723 7.154-5.723-7.154c-0.473-0.59-1.268-0.816-1.977-0.567-0.711 0.251-1.189 0.923-1.189 1.678v26.667c0 1.961 1.595 3.556 3.556 3.556h24.889c1.961 0 3.556-1.595 3.556-3.556v-26.667c0-0.756-0.478-1.428-1.189-1.678-0.711-0.245-1.504-0.021-1.977 0.567l-5.723 7.154-5.723-7.154c-0.677-0.843-2.1-0.843-2.777 0zM3.556 28.444v-3.556h24.891v3.556h-24.891zM21.723 11.778c0.677 0.844 2.101 0.844 2.779 0l3.943-4.932 0.002 14.487h-24.891v-14.487l3.945 4.932c0.677 0.844 2.101 0.844 2.779 0l5.721-7.154 5.723 7.154z"></path>
</symbol>

<symbol id="react_class" viewBox="0 0 32 32">
<path fill="#61dafb" style="fill: var(--color1, #61dafb)" d="M16 13.148c-1.575 0-2.852 1.277-2.852 2.852s1.277 2.852 2.852 2.852v0c1.575 0 2.852-1.277 2.852-2.852s-1.277-2.852-2.852-2.852v0zM8.011 21.673l-0.629-0.16c-4.691-1.185-7.381-3.197-7.381-5.519s2.691-4.333 7.381-5.519l0.629-0.159 0.177 0.624c0.545 1.86 1.163 3.443 1.899 4.957l-0.082-0.186 0.135 0.284-0.135 0.284c-0.656 1.329-1.275 2.912-1.761 4.551l-0.056 0.22zM7.089 11.933c-3.565 1.001-5.753 2.533-5.753 4.061 0 1.527 2.188 3.059 5.753 4.061 0.512-1.62 1.046-2.965 1.662-4.263l-0.086 0.202c-0.531-1.098-1.066-2.443-1.511-3.828l-0.065-0.234zM23.989 21.673l-0.177-0.625c-0.544-1.859-1.162-3.441-1.9-4.954l0.081 0.184-0.135-0.284 0.135-0.284c0.656-1.329 1.275-2.911 1.762-4.55l0.056-0.221 0.177-0.624 0.631 0.159c4.689 1.185 7.38 3.197 7.38 5.52s-2.691 4.333-7.38 5.519zM23.335 15.995c0.64 1.385 1.169 2.747 1.576 4.061 3.567-1.003 5.753-2.535 5.753-4.061 0-1.528-2.188-3.059-5.753-4.061-0.511 1.619-1.045 2.963-1.662 4.262l0.086-0.2zM7.080 11.927l-0.177-0.623c-1.319-4.648-0.919-7.979 1.097-9.141 1.977-1.141 5.152 0.207 8.479 3.621l0.453 0.465-0.453 0.465c-1.146 1.19-2.207 2.482-3.162 3.853l-0.068 0.103-0.18 0.257-0.313 0.027c-1.875 0.151-3.596 0.439-5.264 0.86l0.218-0.047zM9.608 3.087c-0.357 0-0.673 0.077-0.94 0.231-1.325 0.764-1.56 3.42-0.647 7.004 1.21-0.285 2.681-0.521 4.18-0.658l0.131-0.010c0.894-1.264 1.792-2.37 2.756-3.414l-0.020 0.022c-2.080-2.025-4.049-3.175-5.46-3.175zM22.393 30.236c-0.001 0-0.001 0 0 0-1.9 0-4.34-1.431-6.872-4.031l-0.453-0.465 0.453-0.465c1.146-1.19 2.206-2.482 3.16-3.854l0.068-0.103 0.18-0.257 0.312-0.027c1.875-0.15 3.597-0.438 5.267-0.858l-0.218 0.046 0.629-0.159 0.179 0.624c1.316 4.645 0.917 7.977-1.099 9.139-0.449 0.259-0.988 0.411-1.562 0.411-0.016 0-0.031-0-0.047-0l0.002 0zM16.932 25.728c2.080 2.025 4.049 3.175 5.46 3.175h0.001c0.356 0 0.673-0.077 0.939-0.231 1.325-0.764 1.561-3.421 0.647-7.005-1.212 0.286-2.682 0.522-4.182 0.658l-0.13 0.010c-0.893 1.265-1.791 2.371-2.755 3.416l0.020-0.022zM24.92 11.927l-0.629-0.159c-1.453-0.376-3.175-0.664-4.939-0.806l-0.111-0.007-0.312-0.027-0.18-0.257c-1.021-1.474-2.082-2.766-3.237-3.966l0.009 0.010-0.453-0.465 0.453-0.465c3.325-3.413 6.499-4.761 8.479-3.621 2.016 1.163 2.416 4.493 1.099 9.14zM19.667 9.653c1.523 0.139 2.969 0.364 4.312 0.668 0.915-3.584 0.679-6.24-0.647-7.004-1.317-0.761-3.793 0.405-6.4 2.944 0.943 1.022 1.841 2.128 2.666 3.289l0.069 0.103zM9.608 30.236c-0.014 0-0.030 0-0.046 0-0.574 0-1.113-0.152-1.577-0.419l0.015 0.008c-2.016-1.161-2.416-4.492-1.097-9.139l0.176-0.624 0.629 0.159c1.54 0.388 3.239 0.661 5.047 0.812l0.313 0.027 0.179 0.257c1.022 1.475 2.083 2.767 3.239 3.967l-0.010-0.010 0.453 0.465-0.453 0.465c-2.531 2.6-4.971 4.031-6.868 4.031zM8.021 21.667c-0.915 3.584-0.679 6.241 0.647 7.005 1.316 0.751 3.791-0.407 6.4-2.944-0.943-1.022-1.841-2.129-2.667-3.29l-0.069-0.103c-1.629-0.146-3.099-0.382-4.534-0.711l0.224 0.043zM16 22.504c-1.097 0-2.225-0.048-3.355-0.141l-0.313-0.027-0.18-0.257c-0.544-0.768-1.139-1.691-1.697-2.639l-0.103-0.19c-0.452-0.758-0.971-1.732-1.45-2.728l-0.105-0.243-0.133-0.284 0.133-0.284c0.584-1.239 1.102-2.212 1.658-3.161l-0.103 0.191c0.552-0.955 1.159-1.907 1.8-2.829l0.18-0.257 0.313-0.027c1.005-0.090 2.174-0.142 3.355-0.142s2.35 0.052 3.505 0.153l-0.15-0.011 0.312 0.027 0.179 0.257c1.177 1.666 2.294 3.567 3.252 5.56l0.104 0.24 0.135 0.284-0.135 0.284c-1.058 2.232-2.176 4.133-3.439 5.925l0.083-0.125-0.179 0.257-0.312 0.027c-1.129 0.093-2.259 0.141-3.356 0.141zM13.071 21.059c1.973 0.148 3.885 0.148 5.86 0 1.004-1.445 1.978-3.104 2.827-4.836l0.101-0.228c-0.947-1.958-1.922-3.617-3.012-5.19l0.083 0.126c-0.877-0.071-1.898-0.111-2.929-0.111s-2.052 0.040-3.063 0.119l0.134-0.008c-1.008 1.447-1.983 3.106-2.83 4.84l-0.099 0.224c0.951 1.96 1.926 3.619 3.014 5.193l-0.085-0.13z"></path>
</symbol>

<symbol id="home" viewBox="0 0 32 32">
<path d="M1.6 17.6h1.6v11.2c0 1.765 1.435 3.2 3.2 3.2h19.2c1.765 0 3.2-1.435 3.2-3.2v-11.2h1.6c0.646 0 1.232-0.39 1.478-0.987 0.248-0.598 0.11-1.286-0.347-1.744l-14.4-14.4c-0.626-0.626-1.637-0.626-2.262 0l-14.4 14.4c-0.458 0.458-0.595 1.146-0.347 1.744 0.246 0.597 0.832 0.987 1.478 0.987zM12.8 28.8v-8h6.4v8h-6.4zM16 3.862l9.6 9.6v7.338l0.002 8h-3.202v-8c0-1.765-1.435-3.2-3.2-3.2h-6.4c-1.765 0-3.2 1.435-3.2 3.2v8h-3.2v-15.338l9.6-9.6z"></path>
</symbol>

<symbol id="pages" viewBox="0 0 32 32">
<path fill="#435971" style="fill: var(--color3, #435971)" d="M28.444 0h-24.889c-1.961 0-3.556 1.595-3.556 3.556v24.889c0 1.961 1.595 3.556 3.556 3.556h24.889c1.961 0 3.556-1.595 3.556-3.556v-24.889c0-1.961-1.595-3.556-3.556-3.556zM28.444 3.556v5.333h-24.889v-5.333h24.889zM3.556 28.444v-16h24.891l0.002 16h-24.892z"></path>
<path fill="#fff" style="fill: var(--color4, #fff)" opacity="0.4" d="M28.444 0h-24.889c-1.961 0-3.556 1.595-3.556 3.556v24.889c0 1.961 1.595 3.556 3.556 3.556h24.889c1.961 0 3.556-1.595 3.556-3.556v-24.889c0-1.961-1.595-3.556-3.556-3.556zM28.444 3.556v5.333h-24.889v-5.333h24.889zM3.556 28.444v-16h24.891l0.002 16h-24.892z"></path>
</symbol>
<symbol id="Todo" viewBox="0 0 30 32">
<path fill="#435971" style="fill: var(--color3, #435971)" d="M3.708 32h22.4c1.765 0 3.2-1.435 3.2-3.2v-24c0-1.765-1.435-3.2-3.2-3.2h-3.2c0-0.885-0.715-1.6-1.6-1.6h-12.8c-0.885 0-1.6 0.715-1.6 1.6h-3.2c-1.765 0-3.2 1.435-3.2 3.2v24c0 1.765 1.435 3.2 3.2 3.2zM3.708 4.8h3.2v3.2h16v-3.2h3.2v24h-22.4v-24zM10.439 15.669l2.869 2.869 6.069-6.069 2.262 2.262-8.331 8.331-5.131-5.131 2.262-2.262z"></path>
<path fill="#fff" style="fill: var(--color4, #fff)" opacity="0.4" d="M3.708 32h22.4c1.765 0 3.2-1.435 3.2-3.2v-24c0-1.765-1.435-3.2-3.2-3.2h-3.2c0-0.885-0.715-1.6-1.6-1.6h-12.8c-0.885 0-1.6 0.715-1.6 1.6h-3.2c-1.765 0-3.2 1.435-3.2 3.2v24c0 1.765 1.435 3.2 3.2 3.2zM3.708 4.8h3.2v3.2h16v-3.2h3.2v24h-22.4v-24zM10.439 15.669l2.869 2.869 6.069-6.069 2.262 2.262-8.331 8.331-5.131-5.131 2.262-2.262z"></path>
</symbol>

<symbol id="Search" viewBox="0 0 32 32">
<path d="M31.008 27.231l-7.58-6.447c-0.784-0.705-1.622-1.029-2.299-0.998 1.789-2.096 2.87-4.815 2.87-7.787 0-6.627-5.373-12-12-12s-12 5.373-12 12 5.373 12 12 12c2.972 0 5.691-1.081 7.787-2.87-0.031 0.677 0.293 1.515 0.998 2.299l6.447 7.58c1.104 1.226 2.907 1.33 4.007 0.23s0.997-2.903-0.23-4.007zM12 20c-4.418 0-8-3.582-8-8s3.582-8 8-8 8 3.582 8 8-3.582 8-8 8z"></path>
</symbol>
<symbol id="Uaflag" viewBox="0 0 32 32">
<path fill="#2275c5" style="fill: var(--color1, #2275c5)" d="M4.638 1.777c1.093 0.026 2.171 0.042 3.202 0.097 0.962 0.051 1.833 0.132 2.577 0.286 0.638 0.132 1.16 0.323 1.52 0.57 0.316 0.217 0.514 0.486 0.665 0.746 0.287 0.494 0.663 1.005 1.428 1.23 1.037 0.305 2.493 0.333 4.148 0.365 0.859 0.017 1.704 0.027 2.506 0.062 0.732 0.032 1.376 0.081 1.901 0.184 0.42 0.083 0.742 0.205 0.894 0.372 0.129 0.142 0.131 0.326 0.101 0.496-0.059 0.332-0.012 0.699 0.437 0.84 0.327 0.103 0.766 0.154 1.286 0.189 0.595 0.040 1.252 0.054 1.946 0.065 0.314 4.526 0.639 9.18 0.972 13.969-1.467 0.010-2.79 0.009-3.802 0.055-0.364 0.017-0.632 0.034-0.799 0.076-0.095 0.024-0.124 0.076-0.096 0.113 0.032 0.044 0.076 0.096 0.037 0.129-0.071 0.060-0.272 0.086-0.57 0.112-0.419 0.036-0.964 0.055-1.625 0.069-0.761 0.017-1.599 0.024-2.485 0.030-1.802 0.013-3.46 0.015-4.809 0.078-0.535 0.025-0.974 0.059-1.32 0.113-0.273 0.043-0.484 0.104-0.654 0.17-0.164 0.064-0.341 0.141-0.575 0.198-0.305 0.075-0.719 0.131-1.253 0.175-0.662 0.054-1.457 0.086-2.374 0.109-1.019 0.025-2.117 0.037-3.266 0.047 0.003-3.681 0.005-7.283 0.006-10.808 0.002-3.45 0.003-6.829 0.006-10.138z"></path>
<path fill="#f7d016" style="fill: var(--color2, #f7d016)" d="M4.633 11.915c1.124 0.009 2.216 0.017 3.245 0.044 0.942 0.025 1.776 0.063 2.483 0.135 0.583 0.059 1.046 0.139 1.384 0.25 0.264 0.087 0.452 0.202 0.608 0.308 0.312 0.211 0.836 0.393 1.68 0.469 0.558 0.050 1.211 0.075 1.947 0.091 0.805 0.017 1.66 0.022 2.54 0.027 0.877 0.005 1.723 0.009 2.509 0.027 0.7 0.015 1.297 0.038 1.772 0.086 0.357 0.036 0.613 0.080 0.73 0.162 0.074 0.052 0.055 0.136 0.021 0.204-0.034 0.066-0.050 0.143 0.017 0.188 0.105 0.070 0.326 0.103 0.629 0.13 0.397 0.036 0.89 0.052 1.466 0.062 0.645 0.012 1.34 0.015 2.061 0.018 0.163 2.344 0.329 4.721 0.496 7.132-1.467 0.010-2.79 0.009-3.802 0.055-0.364 0.017-0.632 0.034-0.799 0.076-0.095 0.024-0.124 0.076-0.096 0.113 0.032 0.044 0.076 0.096 0.037 0.129-0.071 0.060-0.272 0.086-0.57 0.112-0.419 0.036-0.964 0.055-1.625 0.069-0.761 0.017-1.599 0.024-2.485 0.030-1.802 0.013-3.46 0.015-4.809 0.078-0.535 0.025-0.974 0.059-1.32 0.113-0.273 0.043-0.484 0.104-0.654 0.17-0.164 0.064-0.341 0.141-0.575 0.198-0.305 0.075-0.719 0.131-1.253 0.175-0.662 0.054-1.457 0.086-2.374 0.109-1.019 0.025-2.117 0.037-3.266 0.047 0.003-3.681 0.004-7.283 0.006-10.808z"></path>
</symbol>
<symbol id="Grid" viewBox="0 0 32 32">
<path  d="M12.444 0h-10.667c-0.981 0-1.778 0.796-1.778 1.778v10.667c0 0.981 0.796 1.778 1.778 1.778h10.667c0.981 0 1.778-0.796 1.778-1.778v-10.667c0-0.981-0.796-1.778-1.778-1.778zM10.667 10.667h-7.111v-7.111h7.111v7.111zM19.556 14.222h10.667c0.983 0 1.778-0.796 1.778-1.778v-10.667c0-0.981-0.795-1.778-1.778-1.778h-10.667c-0.983 0-1.778 0.796-1.778 1.778v10.667c0 0.981 0.795 1.778 1.778 1.778zM21.333 3.556h7.111v7.111h-7.111v-7.111zM0 30.222c0 0.981 0.796 1.778 1.778 1.778h10.667c0.981 0 1.778-0.796 1.778-1.778v-10.667c0-0.981-0.796-1.778-1.778-1.778h-10.667c-0.981 0-1.778 0.796-1.778 1.778v10.667zM3.556 21.333h7.111v7.111h-7.111v-7.111zM17.778 30.222c0 0.981 0.795 1.778 1.778 1.778h10.667c0.983 0 1.778-0.796 1.778-1.778v-10.667c0-0.981-0.795-1.778-1.778-1.778h-10.667c-0.983 0-1.778 0.796-1.778 1.778v10.667zM21.333 21.333h7.111v7.111h-7.111v-7.111z"></path>
<path  d="M12.444 0h-10.667c-0.981 0-1.778 0.796-1.778 1.778v10.667c0 0.981 0.796 1.778 1.778 1.778h10.667c0.981 0 1.778-0.796 1.778-1.778v-10.667c0-0.981-0.796-1.778-1.778-1.778zM10.667 10.667h-7.111v-7.111h7.111v7.111zM19.556 14.222h10.667c0.983 0 1.778-0.796 1.778-1.778v-10.667c0-0.981-0.795-1.778-1.778-1.778h-10.667c-0.983 0-1.778 0.796-1.778 1.778v10.667c0 0.981 0.795 1.778 1.778 1.778zM21.333 3.556h7.111v7.111h-7.111v-7.111zM0 30.222c0 0.981 0.796 1.778 1.778 1.778h10.667c0.981 0 1.778-0.796 1.778-1.778v-10.667c0-0.981-0.796-1.778-1.778-1.778h-10.667c-0.981 0-1.778 0.796-1.778 1.778v10.667zM3.556 21.333h7.111v7.111h-7.111v-7.111zM17.778 30.222c0 0.981 0.795 1.778 1.778 1.778h10.667c0.983 0 1.778-0.796 1.778-1.778v-10.667c0-0.981-0.795-1.778-1.778-1.778h-10.667c-0.983 0-1.778 0.796-1.778 1.778v10.667zM21.333 21.333h7.111v7.111h-7.111v-7.111z"></path>
</symbol>
<symbol id="Moon" viewBox="0 0 32 32">
<path d="M5.895 9.148c0.848 8.959 8 16.109 16.957 16.953-1.91 1.211-4.152 1.898-6.5 1.898-6.813 0.001-12.352-5.538-12.352-12.353 0-2.347 0.688-4.587 1.895-6.498zM11.844 0c-6.824 1.969-11.844 8.189-11.844 15.646 0 9.034 7.32 16.354 16.352 16.354 7.457 0 13.68-5.023 15.648-11.844-2.18 1.258-4.672 2.031-7.367 2.031-8.188 0-14.82-6.639-14.82-14.822-0.001-2.695 0.773-5.187 2.031-7.365v0z"></path>
</symbol>
<symbol id="NotificationNo" viewBox="0 0 32 32">
<path d="M27.229 14.775c-1.374-3.807-4.725-6.729-8.891-7.659 1.067-1.532 2.836-2.539 4.845-2.539 3.264 0 5.909 2.646 5.909 5.91 0 1.694-0.722 3.211-1.863 4.288zM15.864 4.799v3.716c5.67 0.231 10.199 4.888 10.199 10.614 0 2.392-0.799 4.592-2.13 6.367l2.464 4.269-2.047 1.183-2.109-3.654c-1.846 1.543-4.221 2.474-6.814 2.474-2.579 0-4.943-0.919-6.784-2.445l-2.165 3.747-2.047-1.183 2.516-4.356c-1.348-1.782-2.156-3.995-2.156-6.402 0-5.688 4.468-10.319 10.084-10.608v-3.722c-0.573-0.205-0.989-0.74-0.989-1.385 0-0.82 0.665-1.484 1.484-1.484s1.485 0.665 1.485 1.484c-0.001 0.645-0.417 1.18-0.991 1.385zM7.153 19.129c0 4.57 3.704 8.273 8.273 8.273s8.273-3.703 8.273-8.273c0-4.568-3.705-8.272-8.273-8.272s-8.273 3.704-8.273 8.272zM17.906 20.918h-2.969c-0.547 0-0.99-0.443-0.99-0.99v-3.959c0-0.547 0.443-0.99 0.99-0.99 0.546 0 0.989 0.443 0.989 0.99v2.969h1.979c0.547 0 0.99 0.443 0.99 0.99s-0.442 0.99-0.989 0.99zM3.772 14.775c-1.142-1.078-1.864-2.594-1.864-4.288 0-3.264 2.646-5.91 5.91-5.91 2.008 0 3.776 1.007 4.845 2.539-4.166 0.93-7.517 3.852-8.891 7.659z"></path>
</symbol>
<symbol id="NotificationYes" viewBox="0 0 31 32">
<path fill="#435971" style="fill: var(--color1, #435971)" d="M17.927 23.346v-3.688c0-3.309-2.247-6.096-5.292-6.935-0.301-0.759-1.038-1.294-1.908-1.294s-1.607 0.535-1.908 1.294c-3.045 0.839-5.292 3.626-5.292 6.935v3.688l-1.756 1.756c-0.193 0.192-0.301 0.454-0.301 0.727v2.057c0 0.569 0.46 1.029 1.029 1.029h16.457c0.569 0 1.029-0.46 1.029-1.029v-2.057c0-0.274-0.108-0.535-0.301-0.727l-1.756-1.756zM17.927 26.857h-14.4v-0.603l1.756-1.756c0.193-0.192 0.301-0.454 0.301-0.727v-4.114c0-2.836 2.307-5.143 5.143-5.143s5.143 2.307 5.143 5.143v4.114c0 0.274 0.108 0.535 0.301 0.727l1.756 1.756v0.603zM10.727 32c1.348 0 2.476-0.858 2.899-2.057h-5.797c0.423 1.199 1.55 2.057 2.898 2.057z"></path>
<path fill="#fff" style="fill: var(--color2, #fff)" opacity="0.2" d="M17.927 23.346v-3.688c0-3.309-2.247-6.096-5.292-6.935-0.301-0.759-1.038-1.294-1.908-1.294s-1.607 0.535-1.908 1.294c-3.045 0.839-5.292 3.626-5.292 6.935v3.688l-1.756 1.756c-0.193 0.192-0.301 0.454-0.301 0.727v2.057c0 0.569 0.46 1.029 1.029 1.029h16.457c0.569 0 1.029-0.46 1.029-1.029v-2.057c0-0.274-0.108-0.535-0.301-0.727l-1.756-1.756zM17.927 26.857h-14.4v-0.603l1.756-1.756c0.193-0.192 0.301-0.454 0.301-0.727v-4.114c0-2.836 2.307-5.143 5.143-5.143s5.143 2.307 5.143 5.143v4.114c0 0.274 0.108 0.535 0.301 0.727l1.756 1.756v0.603zM10.727 32c1.348 0 2.476-0.858 2.899-2.057h-5.797c0.423 1.199 1.55 2.057 2.898 2.057z"></path>
<path fill="#ff3e1d" style="fill: var(--color3, #ff3e1d)" d="M30.857 12.571c0 5.681-4.605 10.286-10.286 10.286s-10.286-4.605-10.286-10.286c0-5.681 4.605-10.286 10.286-10.286s10.286 4.605 10.286 10.286z"></path>
</symbol>
<symbol id="Avatar" viewBox="0 0 32 32">
<path d="M30 19l-9 9-3-3-2 2 5 5 11-11z"></path>
<path d="M14 24h10v-3.598c-2.101-1.225-4.885-2.066-8-2.321v-1.649c2.203-1.242 4-4.337 4-7.432 0-4.971 0-9-6-9s-6 4.029-6 9c0 3.096 1.797 6.191 4 7.432v1.649c-6.784 0.555-12 3.888-12 7.918h14v-2z"></path>
</symbol>
<symbol id="Bighead" viewBox="0 0 32 32">
<path fill="#85c5e5" style="fill: var(--color1, #85c5e5)" d="M26.907 20.369c0 5.935-4.811 10.746-10.746 10.746s-10.746-4.811-10.746-10.746c0-5.935 4.811-10.746 10.746-10.746s10.746 4.811 10.746 10.746z"></path>
<path fill="#fbe8b3" style="fill: var(--color2, #fbe8b3)" d="M19.717 24.524c2.934 0 2.327 3.693 2.355 7.799h-2.355z"></path>
<path fill="#edd494" style="fill: var(--color3, #edd494)" d="M20.452 26.889l-0.735 1.232 0.368 4.202h1.027c0.025-5.827-0.659-5.434-0.659-5.434z"></path>
<path fill="#fbe8b3" style="fill: var(--color2, #fbe8b3)" d="M7.539 16.162c0-4.762 3.86-8.622 8.622-8.622s8.622 3.86 8.622 8.622c0 0.002 0 0.005 0 0.008 0 2.693-1.237 5.096-3.173 6.674l-0.016 0.012q-0.265 0.216-0.548 0.41c-1.945 1.234-4.401 1.234-6.619 1.037-0.215-0.032-0.43-0.073-0.643-0.12-0.851-0.187-1.675-0.477-2.436-0.899q-0.282-0.174-0.547-0.376c-0.189-0.144-0.355-0.286-0.514-0.436l0.003 0.003q-0.231-0.214-0.446-0.445c-1.429-1.53-2.307-3.592-2.307-5.859 0-0.004 0-0.008 0-0.012v0.001z"></path>
<path fill="#edd494" style="fill: var(--color3, #edd494)" d="M8.715 20.508c0.023 0.039 0.045 0.078 0.068 0.116 0.014 0.023 0.028 0.046 0.043 0.069 0.021 0.035 0.043 0.069 0.065 0.103 0.015 0.025 0.032 0.049 0.047 0.072 0.021 0.032 0.043 0.065 0.065 0.097 0.017 0.025 0.032 0.049 0.050 0.074 0.021 0.032 0.043 0.062 0.065 0.093 0.017 0.025 0.036 0.049 0.053 0.074s0.043 0.060 0.065 0.090 0.037 0.049 0.056 0.074 0.044 0.058 0.067 0.087 0.038 0.049 0.058 0.073 0.046 0.057 0.069 0.085 0.040 0.048 0.060 0.072 0.047 0.056 0.070 0.083 0.041 0.047 0.062 0.071l0.072 0.081c0.021 0.024 0.042 0.047 0.065 0.070 0.028 0.030 0.056 0.060 0.084 0.090l0.039 0.041c0.042 0.043 0.084 0.087 0.126 0.129l0.008 0.009c0.042 0.041 0.084 0.082 0.126 0.123l0.051 0.049c0.031 0.029 0.061 0.058 0.092 0.086l0.037 0.034c0.032 0.030 0.068 0.060 0.101 0.090q0.158 0.138 0.323 0.265 0.265 0.202 0.547 0.376c0.761 0.42 1.584 0.711 2.436 0.899 0.213 0.047 0.428 0.087 0.643 0.12 1.361 0.121 2.812 0.167 4.179-0.1-2.173-0.64-12.609-4.398-6.041-15.881v0c-0.088 0.040-0.175 0.082-0.261 0.125l-0.019 0.009c-0.039 0.020-0.079 0.040-0.118 0.061l-0.032 0.017c-0.122 0.065-0.242 0.132-0.36 0.201l-0.029 0.017c-0.037 0.022-0.075 0.045-0.112 0.068l-0.028 0.017q-0.173 0.108-0.341 0.224l-0.035 0.024c-0.035 0.025-0.070 0.049-0.104 0.074l-0.021 0.015q-0.106 0.077-0.209 0.156l-0.020 0.015c-0.032 0.025-0.065 0.051-0.097 0.077l-0.038 0.030c-0.032 0.026-0.065 0.052-0.097 0.079v0c-0.068 0.057-0.135 0.115-0.202 0.174l-0.037 0.032-0.129 0.117q-0.138 0.129-0.271 0.264l-0.045 0.046c-0.026 0.027-0.051 0.053-0.076 0.080-0.015 0.016-0.030 0.032-0.044 0.048q-0.067 0.071-0.131 0.144c-0.015 0.017-0.029 0.032-0.044 0.050-0.023 0.026-0.046 0.053-0.068 0.079l-0.049 0.058c-0.022 0.026-0.044 0.052-0.065 0.079-0.017 0.021-0.035 0.043-0.052 0.065-0.035 0.043-0.069 0.086-0.102 0.129-0.017 0.023-0.035 0.045-0.052 0.068s-0.039 0.051-0.058 0.078-0.035 0.047-0.051 0.070-0.037 0.050-0.054 0.075q-0.046 0.065-0.091 0.131c-0.016 0.024-0.032 0.048-0.048 0.072s-0.036 0.054-0.053 0.081l-0.048 0.075-0.054 0.088c-0.014 0.022-0.028 0.045-0.041 0.067-0.029 0.047-0.057 0.095-0.084 0.142l-0.039 0.070c-0.017 0.031-0.035 0.062-0.052 0.093-0.013 0.024-0.026 0.047-0.038 0.071-0.021 0.038-0.041 0.077-0.061 0.116l-0.039 0.076c-0.021 0.041-0.041 0.082-0.062 0.124-0.011 0.022-0.022 0.045-0.032 0.068-0.017 0.035-0.032 0.071-0.049 0.106-0.010 0.021-0.020 0.043-0.029 0.065q-0.036 0.080-0.070 0.162c-0.007 0.017-0.014 0.034-0.021 0.051-0.017 0.041-0.034 0.082-0.050 0.123-0.009 0.022-0.017 0.043-0.026 0.065-0.016 0.041-0.032 0.082-0.047 0.123-0.007 0.018-0.014 0.036-0.020 0.053q-0.030 0.085-0.060 0.17l-0.018 0.055q-0.021 0.065-0.042 0.129l-0.019 0.062c-0.015 0.050-0.030 0.1-0.044 0.15-0.003 0.011-0.006 0.021-0.009 0.032q-0.025 0.089-0.048 0.179c-0.005 0.019-0.010 0.038-0.015 0.058-0.011 0.045-0.022 0.090-0.032 0.135l-0.014 0.057c-0.014 0.061-0.027 0.123-0.040 0.185l-0.005 0.025q-0.016 0.082-0.032 0.165c-0.004 0.020-0.007 0.039-0.010 0.059-0.008 0.048-0.016 0.097-0.024 0.145-0.003 0.017-0.005 0.032-0.008 0.049-0.010 0.063-0.018 0.126-0.027 0.19l-0.005 0.042c-0.006 0.051-0.012 0.103-0.018 0.155-0.002 0.019-0.004 0.039-0.006 0.059-0.005 0.054-0.010 0.109-0.015 0.164 0 0.011-0.002 0.022-0.003 0.032q-0.007 0.097-0.013 0.196c0 0.017 0 0.035-0.002 0.052q-0.003 0.076-0.006 0.152c0 0.019 0 0.038 0 0.057 0 0.066-0.003 0.133-0.003 0.199 0 0 0 0.002 0 0.003 0 0.072 0 0.143 0.003 0.214 0 0.025 0.002 0.049 0.003 0.074 0.002 0.047 0.003 0.095 0.005 0.143 0 0.029 0.004 0.057 0.005 0.086 0.003 0.043 0.005 0.086 0.008 0.129 0.002 0.032 0.005 0.061 0.008 0.091 0.004 0.041 0.007 0.081 0.011 0.122 0.003 0.032 0.007 0.063 0.010 0.094 0.005 0.039 0.009 0.079 0.014 0.118 0.004 0.032 0.008 0.065 0.013 0.095 0.005 0.038 0.010 0.077 0.016 0.115 0.005 0.032 0.010 0.065 0.015 0.097 0.006 0.038 0.012 0.075 0.018 0.113 0.006 0.032 0.012 0.065 0.018 0.097 0.007 0.037 0.014 0.074 0.021 0.111s0.013 0.065 0.020 0.097c0.008 0.037 0.016 0.073 0.024 0.11s0.014 0.065 0.022 0.095c0.008 0.037 0.017 0.073 0.027 0.109s0.016 0.063 0.024 0.094c0.010 0.036 0.019 0.072 0.029 0.108 0.008 0.032 0.017 0.062 0.026 0.093 0.010 0.036 0.021 0.071 0.032 0.107s0.019 0.061 0.028 0.092 0.023 0.071 0.034 0.106 0.020 0.060 0.030 0.090c0.012 0.035 0.025 0.070 0.037 0.106 0.011 0.029 0.021 0.059 0.032 0.089l0.040 0.106c0.011 0.029 0.022 0.058 0.032 0.087 0.014 0.035 0.029 0.071 0.043 0.106 0.012 0.028 0.023 0.056 0.035 0.084 0.015 0.036 0.032 0.072 0.047 0.108 0.012 0.026 0.024 0.053 0.036 0.080 0.017 0.038 0.035 0.074 0.052 0.111l0.035 0.074c0.020 0.041 0.040 0.081 0.060 0.121 0.010 0.020 0.020 0.041 0.031 0.061q0.093 0.181 0.194 0.358c0.009 0.015 0.021 0.035 0.033 0.055z"></path>
<path fill="none" stroke="#592d3d" style="stroke: var(--color4, #592d3d)" stroke-linejoin="miter" stroke-linecap="butt" stroke-miterlimit="10" stroke-width="0.3879" d="M7.539 16.162c0-4.762 3.86-8.622 8.622-8.622s8.622 3.86 8.622 8.622c0 0.002 0 0.005 0 0.008 0 2.693-1.237 5.096-3.173 6.674l-0.016 0.012q-0.265 0.216-0.548 0.41c-1.945 1.234-4.401 1.234-6.619 1.037-0.215-0.032-0.43-0.073-0.643-0.12-0.851-0.187-1.675-0.477-2.436-0.899q-0.282-0.174-0.547-0.376c-0.189-0.144-0.355-0.286-0.514-0.436l0.003 0.003q-0.231-0.214-0.446-0.445c-1.429-1.53-2.307-3.592-2.307-5.859 0-0.004 0-0.008 0-0.012v0.001z"></path>
<path fill="#fbe8b3" style="fill: var(--color2, #fbe8b3)" d="M12.481 24.524c-2.934 0-2.327 3.693-2.355 7.799h2.355z"></path>
<path fill="#edd494" style="fill: var(--color3, #edd494)" d="M11.87 26.889l0.736 1.232-0.368 4.202h-1.026c-0.026-5.827 0.658-5.434 0.658-5.434z"></path>
<path fill="#fbe8b3" style="fill: var(--color2, #fbe8b3)" d="M20.023 34.586h-7.723c-0.237-0-0.429-0.192-0.429-0.429v0-9.203c0-0.237 0.192-0.429 0.429-0.429h7.539c0.423 0 0.614 0.248 0.614 0.643v8.988c0 0 0 0.001 0 0.001 0 0.237-0.192 0.429-0.429 0.429-0 0-0 0-0 0h0z"></path>
<path fill="#edd494" style="fill: var(--color3, #edd494)" d="M20.333 24.78c-0.031-0.038-0.058-0.080-0.079-0.126l-0.002-0.004c-0.074-0.059-0.165-0.099-0.265-0.113l-0.003-0c-0.043-0.007-0.092-0.011-0.143-0.011-0.001 0-0.002 0-0.003 0h-7.539c-0.236 0-0.428 0.191-0.429 0.428v0c0.937 0.337 2.692 0.525 4.291 0.525 2.038 0 3.374-0.302 4.171-0.699z"></path>
<path fill="none" stroke="#592d3d" style="stroke: var(--color4, #592d3d)" stroke-linejoin="miter" stroke-linecap="square" stroke-miterlimit="10" stroke-width="0.3879" d="M19.717 24.524c2.934 0 2.327 3.693 2.355 7.799h-1.62"></path>
<path fill="none" stroke="#592d3d" style="stroke: var(--color4, #592d3d)" stroke-linejoin="miter" stroke-linecap="square" stroke-miterlimit="10" stroke-width="0.3879" d="M12.481 24.524c-2.934 0-2.327 3.693-2.355 7.799h1.618"></path>
<path fill="#edd494" style="fill: var(--color3, #edd494)" d="M12.3 34.586h3.77c-3.528 0-3.262-7.473-4.198-7.473v7.042c0 0 0 0.001 0 0.001 0 0.237 0.192 0.429 0.429 0.429h0z"></path>
<path fill="#592d3d" style="fill: var(--color4, #592d3d)" d="M11.677 27.825c-0.006-0.119-0.004-0.237 0.002-0.356s0.015-0.238 0.028-0.356c0.006-0.059 0.013-0.119 0.021-0.178s0.016-0.119 0.027-0.178c0.025-0.134 0.066-0.253 0.12-0.364l-0.004 0.008c0.050 0.103 0.091 0.222 0.115 0.347l0.001 0.009c0.012 0.059 0.020 0.119 0.027 0.178s0.015 0.119 0.021 0.178c0.012 0.119 0.022 0.237 0.027 0.356s0.008 0.237 0.002 0.356z"></path>
<path fill="#592d3d" style="fill: var(--color4, #592d3d)" d="M20.258 28.121c-0.006-0.135-0.003-0.27 0.002-0.405s0.015-0.27 0.027-0.405c0.006-0.068 0.013-0.135 0.021-0.203s0.016-0.135 0.027-0.202c0.025-0.152 0.065-0.288 0.12-0.417l-0.004 0.012c0.051 0.117 0.091 0.253 0.115 0.395l0.001 0.010c0.012 0.068 0.020 0.135 0.027 0.202s0.015 0.135 0.021 0.203c0.012 0.135 0.022 0.27 0.027 0.405s0.008 0.27 0.002 0.405z"></path>
<path fill="none" stroke="#592d3d" style="stroke: var(--color4, #592d3d)" stroke-linejoin="miter" stroke-linecap="butt" stroke-miterlimit="10" stroke-width="0.3879" d="M16.229 28.408c-0 1.237-1.003 2.24-2.24 2.24s-2.24-1.003-2.24-2.24c0-0.371 0.090-0.721 0.25-1.029l-0.006 0.012"></path>
<path fill="#fbe8b3" style="fill: var(--color2, #fbe8b3)" d="M11.992 27.39c0.128-0.247 0.29-0.457 0.483-0.634l0.002-0.002z"></path>
<path fill="#592d3d" style="fill: var(--color4, #592d3d)" d="M11.819 27.302c0.031-0.072 0.067-0.134 0.111-0.191l-0.002 0.002c0.045-0.060 0.093-0.113 0.146-0.161l0.001-0.001c0.027-0.025 0.055-0.049 0.083-0.071 0.027-0.022 0.056-0.042 0.088-0.060l0.003-0.002c0.065-0.038 0.143-0.062 0.225-0.065l0.001-0c-0.009 0.081-0.029 0.156-0.059 0.225l0.002-0.005c-0.013 0.032-0.027 0.061-0.042 0.090l-0.042 0.086c-0.027 0.057-0.055 0.113-0.082 0.168-0.032 0.065-0.061 0.118-0.094 0.169l0.004-0.007z"></path>
<path fill="#fbe8b3" style="fill: var(--color2, #fbe8b3)" d="M15.817 27.113c0.258 0.359 0.412 0.807 0.412 1.291 0 0.001 0 0.001 0 0.002v-0z"></path>
<path fill="#592d3d" style="fill: var(--color4, #592d3d)" d="M15.817 27.113c0.112 0.062 0.206 0.144 0.279 0.242l0.002 0.002c0.034 0.045 0.067 0.095 0.097 0.148l0.003 0.006c0.030 0.054 0.057 0.11 0.082 0.166 0.045 0.101 0.084 0.22 0.11 0.344l0.002 0.012c0.020 0.094 0.032 0.201 0.032 0.311 0 0.022-0 0.043-0.001 0.064l0-0.003h-0.388c-0.006-0.105-0.012-0.209-0.023-0.314s-0.025-0.209-0.045-0.315l-0.016-0.079-0.019-0.079c-0.014-0.053-0.028-0.105-0.042-0.159-0.026-0.091-0.052-0.208-0.071-0.328l-0.003-0.019z"></path>
<path fill="#fbe8b3" style="fill: var(--color2, #fbe8b3)" d="M20.74 28.408c0-0.001 0-0.002 0-0.003 0-0.644-0.272-1.224-0.708-1.632l-0.001-0.001z"></path>
<path fill="#592d3d" style="fill: var(--color4, #592d3d)" d="M20.546 28.408c-0.006-0.152-0.020-0.295-0.043-0.436l0.003 0.020c-0.026-0.157-0.061-0.295-0.106-0.428l0.006 0.019c-0.011-0.032-0.024-0.067-0.036-0.101s-0.027-0.066-0.040-0.1-0.030-0.065-0.045-0.099l-0.047-0.097c-0.065-0.133-0.135-0.265-0.206-0.412 0.155 0.067 0.286 0.161 0.394 0.278l0.001 0.001c0.027 0.030 0.055 0.060 0.080 0.092s0.050 0.065 0.073 0.097 0.046 0.068 0.067 0.103 0.042 0.070 0.061 0.107c0.071 0.133 0.131 0.287 0.172 0.448l0.003 0.014c0.034 0.132 0.053 0.283 0.053 0.438 0 0.020-0 0.039-0.001 0.059l0-0.003z"></path>
<path fill="none" stroke="#592d3d" style="stroke: var(--color4, #592d3d)" stroke-linejoin="miter" stroke-linecap="butt" stroke-miterlimit="10" stroke-width="0.3879" d="M16.259 28.408c-0 0.008-0 0.017-0 0.027 0 1.237 1.003 2.24 2.24 2.24s2.24-1.003 2.24-2.24c0-0.009-0-0.019-0-0.028v0.001"></path>
<path fill="#fbe8b3" style="fill: var(--color2, #fbe8b3)" d="M16.671 27.113c-0.257 0.359-0.411 0.807-0.411 1.291 0 0.001 0 0.002 0 0.002v-0z"></path>
<path fill="#592d3d" style="fill: var(--color4, #592d3d)" d="M16.671 27.113c-0.022 0.139-0.047 0.256-0.079 0.371l0.006-0.024c-0.014 0.054-0.028 0.107-0.042 0.159l-0.018 0.079-0.016 0.079c-0.020 0.105-0.035 0.21-0.046 0.315s-0.016 0.209-0.022 0.314h-0.389c-0.001-0.019-0.001-0.041-0.001-0.064 0-0.109 0.012-0.216 0.034-0.319l-0.002 0.010c0.028-0.135 0.066-0.254 0.116-0.367l-0.004 0.011c0.025-0.057 0.052-0.113 0.082-0.166 0.033-0.059 0.066-0.11 0.103-0.158l-0.002 0.003c0.075-0.101 0.169-0.183 0.278-0.242l0.004-0.002z"></path>
<path fill="none" stroke="#592d3d" style="stroke: var(--color4, #592d3d)" stroke-linejoin="miter" stroke-linecap="butt" stroke-miterlimit="10" stroke-width="0.3879" d="M12.394 27.072v-2.548"></path>
<path fill="none" stroke="#592d3d" style="stroke: var(--color4, #592d3d)" stroke-linejoin="miter" stroke-linecap="butt" stroke-miterlimit="10" stroke-width="0.3879" d="M19.926 27.072v-2.548"></path>
<path fill="#633749" style="fill: var(--color5, #633749); stroke: var(--color4, #592d3d)" stroke="#592d3d" stroke-linejoin="miter" stroke-linecap="butt" stroke-miterlimit="10" stroke-width="0.3879" d="M15.208 29.019h1.742v0.637c-0.573-0.196-1.154-0.191-1.742 0z"></path>
<path fill="#633749" style="fill: var(--color5, #633749); stroke: var(--color4, #592d3d)" stroke="#592d3d" stroke-linejoin="miter" stroke-linecap="butt" stroke-miterlimit="10" stroke-width="0.3879" d="M20.625 28.408c0-0.001 0-0.002 0-0.003 0-0.59-0.229-1.127-0.603-1.526l0.001 0.001c-0.136-0.146-1.431 0.2-2.192 0.881-0.747 0.669-1.397 1.761-1.304 1.899 0.408 0.6 1.088 0.988 1.858 0.988 1.237 0 2.24-1.003 2.24-2.24 0 0 0-0 0-0v0z"></path>
<path fill="#fff" style="fill: var(--color6, #fff)" d="M19.333 27.423c-0.198 0.119-0.393 0.232-0.582 0.356-0.202 0.13-0.376 0.26-0.541 0.4l0.007-0.006c-0.166 0.144-0.327 0.301-0.485 0.461s-0.313 0.323-0.477 0.487c0.108-0.224 0.228-0.417 0.367-0.595l-0.005 0.007c0.144-0.189 0.3-0.355 0.471-0.505l0.004-0.003c0.17-0.145 0.363-0.271 0.57-0.372l0.016-0.007c0.189-0.095 0.407-0.172 0.637-0.219l0.017-0.003z"></path>
<path fill="#633749" style="fill: var(--color5, #633749); stroke: var(--color4, #592d3d)" stroke="#592d3d" stroke-linejoin="miter" stroke-linecap="butt" stroke-miterlimit="10" stroke-width="0.3879" d="M11.698 28.408c0-0.001 0-0.002 0-0.003 0-0.59 0.229-1.127 0.603-1.526l-0.001 0.001c0.136-0.146 1.431 0.2 2.192 0.881 0.747 0.669 1.397 1.761 1.304 1.899-0.408 0.6-1.088 0.988-1.858 0.988-1.237 0-2.24-1.003-2.24-2.24 0 0 0-0 0-0v0z"></path>
<path fill="#5e3244" style="fill: var(--color7, #5e3244)" d="M14.731 30.349c-1.524 0-2.759-1.235-2.759-2.759v0c0-0 0-0 0-0 0-0.099 0.005-0.197 0.015-0.294l-0.001 0.012c-0.181 0.316-0.288 0.695-0.288 1.099 0 1.237 1.003 2.24 2.24 2.24 0.429 0 0.83-0.121 1.171-0.33l-0.010 0.006c-0.11 0.016-0.238 0.025-0.368 0.025h-0z"></path>
<path fill="none" stroke="#592d3d" style="stroke: var(--color4, #592d3d)" stroke-linejoin="miter" stroke-linecap="butt" stroke-miterlimit="10" stroke-width="0.3879" d="M11.698 28.408c0-0.001 0-0.002 0-0.003 0-0.59 0.229-1.127 0.603-1.526l-0.001 0.001c0.136-0.146 1.431 0.2 2.192 0.881 0.747 0.669 1.397 1.761 1.304 1.899-0.408 0.6-1.088 0.988-1.858 0.988-1.237 0-2.24-1.003-2.24-2.24 0 0 0-0 0-0v0z"></path>
<path fill="#fff" style="fill: var(--color6, #fff)" d="M12.99 27.423c0.247 0.051 0.466 0.127 0.67 0.229l-0.016-0.007c0.224 0.108 0.416 0.235 0.59 0.383l-0.004-0.003c0.174 0.153 0.33 0.319 0.467 0.5l0.006 0.008c0.133 0.171 0.254 0.363 0.353 0.568l0.008 0.019c-0.164-0.162-0.318-0.327-0.477-0.487s-0.318-0.317-0.485-0.461c-0.158-0.134-0.332-0.264-0.515-0.382l-0.020-0.012c-0.188-0.123-0.382-0.236-0.58-0.355z"></path>
<path fill="#edd494" style="fill: var(--color3, #edd494)" d="M21.909 29.296c0.007-1.2-0.039-2.265-0.25-3.083-0.326-0.82-0.911-1.308-1.942-1.308l0.737 4.348s0.728 0.331 1.455 0.044z"></path>
<path fill="none" stroke="#592d3d" style="stroke: var(--color4, #592d3d)" stroke-linejoin="miter" stroke-linecap="square" stroke-miterlimit="10" stroke-width="0.3879" d="M22.187 28.955c-0.035 0.029-0.074 0.055-0.116 0.077l-0.004 0.002"></path>
<path fill="#edd494" style="fill: var(--color3, #edd494)" d="M10.541 26.178c-0.221 0.826-0.259 1.911-0.25 3.135 0.643 0.276 1.63-0.070 1.63-0.070l0.56-4.274c-0.998-0.001-1.593 0.448-1.94 1.209z"></path>
<path fill="#633749" style="fill: var(--color5, #633749)" d="M19.839 24.524h-1.752v0.003c0 0 0 0 0 0.001 0 0.153-0.017 0.302-0.049 0.446l0.003-0.014c-0.018 0.083-0.038 0.152-0.060 0.218l0.004-0.014c-0.076 0.21-0.186 0.391-0.325 0.546l0.001-0.002c-0.046 0.051-0.093 0.098-0.143 0.142l-0.002 0.002c-0.814 0.588-2.107 0.621-2.892-0.019-0.085-0.074-0.16-0.154-0.227-0.242l-0.003-0.004c-0.136-0.177-0.238-0.387-0.292-0.616l-0.002-0.011c-0.013-0.058-0.026-0.13-0.034-0.204l-0.001-0.009c-0.008-0.065-0.012-0.14-0.012-0.217 0-0.001 0-0.002 0-0.003v0-0.003h-1.752c-0.237 0-0.429 0.192-0.429 0.429v0 9.202c0 0 0 0.001 0 0.001 0 0.237 0.192 0.429 0.429 0.429h7.723c0.237-0 0.429-0.192 0.429-0.429v0-8.99c0-0.395-0.19-0.643-0.613-0.643z"></path>
<path fill="#633749" style="fill: var(--color5, #633749)" d="M19.717 24.524c2.054 0 2.373 1.81 2.389 4.305-0.601 0.376-1.581 0.042-1.581 0.042z"></path>
<path fill="#5e3244" style="fill: var(--color7, #5e3244)" d="M20.452 26.889l-0.735 1.232 0.368 4.202h0.375v-3.415l0.559 0.093c-0.183-2.333-0.567-2.113-0.567-2.113z"></path>
<path fill="#633749" style="fill: var(--color5, #633749)" d="M12.481 24.524c-1.997 0-2.451 1.739-2.484 4.126 0.614 0.642 1.875 0.148 1.875 0.148z"></path>
<path fill="#5e3244" style="fill: var(--color7, #5e3244)" d="M11.87 26.889v1.911l-0.559 0.139c0.183-2.267 0.559-2.051 0.559-2.051z"></path>
<path fill="none" stroke="#592d3d" style="stroke: var(--color4, #592d3d)" stroke-linejoin="miter" stroke-linecap="square" stroke-miterlimit="10" stroke-width="0.3879" d="M19.717 24.524c2.179 0 2.536 1.819 2.55 4.324-0.847 0.402-1.743 0.023-1.743 0.023"></path>
<path fill="none" stroke="#592d3d" style="stroke: var(--color4, #592d3d)" stroke-linejoin="miter" stroke-linecap="square" stroke-miterlimit="10" stroke-width="0.3879" d="M12.481 24.524c-2.159 0-2.588 1.768-2.61 4.225 0.667 0.478 1.999 0.050 1.999 0.050"></path>
<path fill="#5e3244" style="fill: var(--color7, #5e3244)" d="M12.3 34.586h3.77c-3.528 0-3.262-7.473-4.198-7.473v7.042c0 0 0 0.001 0 0.001 0 0.237 0.192 0.429 0.429 0.429h0z"></path>
<path fill="#592d3d" style="fill: var(--color4, #592d3d)" d="M11.677 27.825c-0.006-0.119-0.004-0.237 0.002-0.356s0.015-0.238 0.028-0.356c0.006-0.059 0.013-0.119 0.021-0.178s0.016-0.119 0.027-0.178c0.025-0.134 0.066-0.253 0.12-0.364l-0.004 0.008c0.051 0.103 0.091 0.222 0.114 0.347l0.001 0.009c0.012 0.059 0.020 0.119 0.028 0.178s0.015 0.119 0.021 0.178c0.012 0.119 0.022 0.237 0.027 0.356s0.008 0.237 0.002 0.356z"></path>
<path fill="none" stroke="#592d3d" style="stroke: var(--color4, #592d3d)" stroke-linejoin="miter" stroke-linecap="butt" stroke-miterlimit="10" stroke-width="0.3879" d="M20.452 28.121v0.259c0.008 1.099 0.008 2.23 0 3.321 0 0.093 0 0.185 0 0.276v2.179c0 0 0 0.001 0 0.001 0 0.237-0.192 0.429-0.429 0.429h-7.723c-0.237-0-0.429-0.192-0.429-0.429v0-1.881c0-0.081 0-0.164 0-0.247-0.008-1.127-0.008-2.258 0-3.404v-0.799"></path>
<path fill="#592d3d" style="fill: var(--color4, #592d3d)" d="M20.258 28.121c-0.006-0.135-0.003-0.27 0.002-0.405s0.015-0.27 0.027-0.405c0.006-0.068 0.013-0.135 0.021-0.203s0.016-0.135 0.028-0.202c0.025-0.152 0.065-0.288 0.12-0.416l-0.004 0.011c0.051 0.117 0.091 0.253 0.115 0.395l0.001 0.010c0.012 0.068 0.020 0.135 0.027 0.202s0.015 0.135 0.021 0.203c0.012 0.135 0.022 0.27 0.027 0.405s0.008 0.27 0.002 0.405z"></path>
<path fill="none" stroke="#592d3d" style="stroke: var(--color4, #592d3d)" stroke-linejoin="miter" stroke-linecap="butt" stroke-miterlimit="10" stroke-width="0.3879" d="M12.3 24.527l7.539-0.003"></path>
<path fill="none" stroke="#592d3d" style="stroke: var(--color4, #592d3d)" stroke-linejoin="miter" stroke-linecap="butt" stroke-miterlimit="10" stroke-width="0.3879" d="M18.086 24.527c0 0 0 0 0 0.001 0 0.153-0.017 0.302-0.049 0.446l0.003-0.014c-0.018 0.083-0.038 0.152-0.060 0.218l0.004-0.014c-0.076 0.21-0.186 0.391-0.325 0.546l0.001-0.002c-0.046 0.051-0.093 0.098-0.143 0.142l-0.002 0.002c-0.814 0.588-2.107 0.621-2.892-0.019-0.085-0.074-0.16-0.154-0.227-0.242l-0.003-0.004c-0.136-0.177-0.238-0.387-0.292-0.616l-0.002-0.011c-0.013-0.058-0.026-0.13-0.034-0.204l-0.001-0.009c-0.008-0.065-0.012-0.14-0.012-0.217 0-0.001 0-0.002 0-0.003v0"></path>
<path fill="#592d3d" style="fill: var(--color4, #592d3d)" d="M16.271 26.776c-0.128 0.027-0.274 0.042-0.425 0.042-0.060 0-0.119-0.002-0.178-0.007l0.008 0c-0.215-0.015-0.415-0.059-0.604-0.126l0.016 0.005c-0.204-0.071-0.38-0.165-0.539-0.283l0.005 0.004-0.060-0.046c-0.020-0.015-0.039-0.032-0.058-0.049-0.039-0.033-0.074-0.068-0.107-0.105l-0.001-0.001c-0.064-0.071-0.121-0.151-0.17-0.236l-0.004-0.007c0.068 0.068 0.139 0.132 0.213 0.193l0.005 0.004c0.019 0.015 0.038 0.031 0.057 0.045s0.040 0.026 0.059 0.040 0.039 0.027 0.060 0.040l0.062 0.038c0.149 0.090 0.32 0.171 0.501 0.235l0.020 0.006c0.156 0.057 0.344 0.107 0.537 0.141l0.021 0.003c0.164 0.029 0.364 0.051 0.567 0.064l0.015 0.001z"></path>
<path fill="none" stroke="#592d3d" style="stroke: var(--color4, #592d3d)" stroke-linejoin="miter" stroke-linecap="square" stroke-miterlimit="10" stroke-width="0.3879" d="M9.95 28.849c0.035 0.032 0.074 0.062 0.116 0.088l0.003 0.002"></path>
<path fill="#592d3d" style="fill: var(--color4, #592d3d)" d="M21.808 28.531c-0.063 0.038-0.136 0.067-0.215 0.081l-0.004 0.001c-0.065 0.013-0.14 0.021-0.217 0.021-0.006 0-0.011-0-0.017-0h0.001c-0.083-0.002-0.163-0.011-0.241-0.027l0.008 0.001c-0.038-0.007-0.075-0.018-0.113-0.028s-0.073-0.025-0.109-0.040c0.039 0 0.077 0.006 0.115 0.009l0.114 0.009c0.038 0 0.075 0.006 0.113 0.007s0.075 0.004 0.113 0.004q0.113 0.002 0.226-0.006c0.083-0.006 0.16-0.017 0.235-0.034l-0.011 0.002z"></path>
<path fill="none" stroke="#fff" style="stroke: var(--color6, #fff)" stroke-linejoin="miter" stroke-linecap="butt" stroke-miterlimit="4" stroke-width="0.5172" d="M16.162 27.825c-1.055 0-1.909 0.855-1.909 1.909s0.855 1.909 1.909 1.909c1.055 0 1.909-0.855 1.909-1.909v0c-0.003-1.053-0.856-1.906-1.909-1.909h-0zM15.098 30.799c-0.267-0.265-0.433-0.631-0.436-1.036v-0.001l1.487 1.473c-0.382-0.014-0.762-0.151-1.050-0.437zM16.488 31.195l-1.785-1.787c0.154-0.676 0.751-1.173 1.463-1.173 0.495 0 0.934 0.24 1.207 0.61l0.003 0.004-0.205 0.178c-0.23-0.313-0.596-0.514-1.009-0.517h-0c-0.531 0.003-0.982 0.339-1.156 0.809l-0.003 0.009 1.568 1.568c0.396-0.143 0.693-0.472 0.789-0.878l0.002-0.008h-0.655v-0.273h0.954c-0.005 0.709-0.5 1.301-1.163 1.455l-0.010 0.002z"></path>
<path fill="#663795" style="fill: var(--color8, #663795)" d="M16.162 27.825c-1.055 0-1.909 0.855-1.909 1.909s0.855 1.909 1.909 1.909c1.055 0 1.909-0.855 1.909-1.909v0c-0.003-1.053-0.856-1.906-1.909-1.909h-0zM15.098 30.799c-0.267-0.265-0.433-0.631-0.436-1.036v-0.001l1.487 1.473c-0.382-0.014-0.762-0.151-1.050-0.437zM16.488 31.195l-1.785-1.787c0.154-0.676 0.751-1.173 1.463-1.173 0.495 0 0.934 0.24 1.207 0.61l0.003 0.004-0.205 0.178c-0.23-0.313-0.596-0.514-1.009-0.517h-0c-0.531 0.003-0.982 0.339-1.156 0.809l-0.003 0.009 1.568 1.568c0.396-0.143 0.693-0.472 0.789-0.878l0.002-0.008h-0.655v-0.273h0.954c-0.005 0.709-0.5 1.301-1.163 1.455l-0.010 0.002z"></path>
<path fill="#000" style="fill: var(--color9, #000)" opacity="0.1" d="M13.798 31.083c0.979-0 1.811-0.628 2.116-1.503l0.005-0.016c-0.406 0.685-1.141 1.137-1.981 1.137-0.75 0-1.416-0.36-1.835-0.916l-0.004-0.006-0.002 0.476c0.412 0.505 0.998 0.828 1.701 0.828z"></path>
<path fill="#000" style="fill: var(--color9, #000)" opacity="0.1" d="M18.525 31.083c-0.979-0-1.811-0.628-2.116-1.503l-0.005-0.016c0.406 0.685 1.141 1.137 1.981 1.137 0.75 0 1.416-0.36 1.835-0.916l0.004-0.006v0.476c-0.41 0.506-0.997 0.829-1.699 0.829z"></path>
<path fill="#633749" style="fill: var(--color5, #633749)" d="M13.156 30.507c-0.858-0.327-1.457-1.143-1.457-2.099 0-0.589 0.227-1.126 0.6-1.526l-0.001 0.001z"></path>
<path fill="#592d3d" style="fill: var(--color4, #592d3d)" d="M13.156 30.507c-0.398-0.067-0.743-0.252-1.009-0.517v0l-0.052-0.052c-0.017-0.017-0.032-0.037-0.049-0.055s-0.032-0.037-0.048-0.056c-0.015-0.017-0.031-0.036-0.045-0.056l-0.001-0.002c-0.029-0.040-0.059-0.079-0.087-0.12l-0.077-0.127c-0.090-0.159-0.165-0.344-0.214-0.538l-0.003-0.015c-0.036-0.151-0.056-0.325-0.056-0.504 0-0.031 0.001-0.062 0.002-0.092l-0 0.004c0.010-0.21 0.049-0.408 0.114-0.594l-0.004 0.015c0.008-0.023 0.016-0.046 0.025-0.069l0.028-0.068c0.018-0.045 0.041-0.089 0.062-0.132 0.050-0.095 0.101-0.176 0.157-0.252l-0.004 0.005c0.027-0.039 0.059-0.076 0.089-0.113s0.063-0.072 0.097-0.104c0.065-0.065 0.136-0.125 0.212-0.177l0.005-0.003c-0.187 0.323-0.32 0.653-0.377 0.991-0.025 0.133-0.039 0.286-0.039 0.442 0 0.022 0 0.044 0.001 0.066l-0-0.003c0.007 0.18 0.030 0.351 0.068 0.517l-0.004-0.018c0.045 0.182 0.102 0.34 0.172 0.489l-0.007-0.016c0.078 0.166 0.166 0.309 0.266 0.442l-0.005-0.006c0.106 0.144 0.221 0.27 0.347 0.384l0.002 0.002c0.129 0.116 0.27 0.226 0.419 0.325l0.014 0.009z"></path>
<path fill="#633749" style="fill: var(--color5, #633749)" d="M19.169 30.507c0.858-0.327 1.456-1.143 1.456-2.099 0-0.59-0.228-1.126-0.6-1.526l0.001 0.001z"></path>
<path fill="#592d3d" style="fill: var(--color4, #592d3d)" d="M19.169 30.507c0.162-0.108 0.303-0.217 0.435-0.336l-0.003 0.003c0.128-0.116 0.243-0.242 0.345-0.379l0.005-0.007c0.096-0.126 0.183-0.269 0.255-0.421l0.006-0.015c0.064-0.134 0.12-0.292 0.162-0.456l0.004-0.018c0.035-0.147 0.058-0.318 0.064-0.493l0-0.005c0.001-0.021 0.001-0.045 0.001-0.069 0-0.154-0.014-0.306-0.040-0.452l0.002 0.015c-0.057-0.339-0.19-0.667-0.377-0.991 0.081 0.056 0.152 0.115 0.218 0.181v0c0.035 0.032 0.065 0.069 0.097 0.104s0.061 0.074 0.089 0.113c0.052 0.071 0.103 0.152 0.148 0.236l0.005 0.011c0.021 0.044 0.044 0.087 0.062 0.132l0.028 0.068c0.009 0.023 0.016 0.046 0.025 0.069 0.061 0.171 0.1 0.369 0.11 0.575l0 0.005c0.001 0.026 0.002 0.057 0.002 0.088 0 0.179-0.021 0.352-0.059 0.519l0.003-0.015c-0.052 0.21-0.127 0.394-0.223 0.565l0.006-0.011-0.077 0.127c-0.028 0.041-0.058 0.081-0.087 0.12-0.016 0.022-0.031 0.041-0.047 0.059l0.001-0.001c-0.016 0.019-0.032 0.038-0.048 0.056s-0.032 0.037-0.049 0.055l-0.052 0.052c-0.265 0.266-0.611 0.451-0.998 0.516l-0.011 0.002z"></path>
<path fill="#edd494" style="fill: var(--color3, #edd494)" d="M8.773 18.645c-0.032-0.917 0.582-1.692 1.399-2.054 0.072-0.031 0.159-0.060 0.25-0.084l0.014-0.003c0.164-0.042 0.352-0.067 0.546-0.067 0.295 0 0.576 0.056 0.834 0.159l-0.015-0.005c0.114 0.044 0.21 0.089 0.301 0.14l-0.012-0.006c0.954 0.513 1.383 1.721 1.014 2.698-0.043 0.111-0.088 0.205-0.14 0.295l0.005-0.009c-0.133 0.273-0.325 0.5-0.561 0.67l-0.005 0.004c-0.073 0.054-0.156 0.108-0.242 0.156l-0.011 0.006c-0.885 0.42-2.081 0.291-2.794-0.369-0.069-0.073-0.134-0.152-0.193-0.235l-0.005-0.007c-0.063-0.088-0.123-0.189-0.175-0.295l-0.005-0.012c-0.103-0.205-0.17-0.445-0.184-0.698l-0-0.005c-0.011-0.082-0.018-0.178-0.019-0.275l-0-0.002z"></path>
<path fill="#fff" style="fill: var(--color6, #fff)" d="M8.72 18.052c-0.032-0.917 0.582-1.692 1.399-2.054 0.072-0.031 0.159-0.060 0.249-0.084l0.014-0.003c0.164-0.042 0.352-0.067 0.546-0.067 0.295 0 0.576 0.056 0.834 0.159l-0.015-0.005c0.114 0.044 0.209 0.089 0.3 0.14l-0.012-0.006c0.954 0.514 1.383 1.721 1.014 2.698-0.042 0.111-0.088 0.205-0.14 0.294l0.005-0.009c-0.050 0.098-0.101 0.18-0.157 0.258l0.004-0.006c-0.059 0.084-0.12 0.158-0.185 0.227l0.001-0.001c-0.070 0.069-0.145 0.134-0.225 0.192l-0.006 0.004c-0.073 0.054-0.156 0.108-0.242 0.156l-0.011 0.006c-0.885 0.42-2.081 0.291-2.794-0.369-0.069-0.073-0.134-0.152-0.193-0.235l-0.005-0.007c-0.063-0.088-0.123-0.189-0.175-0.295l-0.005-0.012c-0.104-0.206-0.171-0.446-0.184-0.701l-0-0.004c-0.011-0.082-0.017-0.178-0.018-0.275v-0.001z"></path>
<path fill="#592d3d" style="fill: var(--color4, #592d3d)" d="M11.337 18.071c0 0.218-0.177 0.396-0.396 0.396s-0.396-0.177-0.396-0.396c0-0.218 0.177-0.396 0.396-0.396s0.396 0.177 0.396 0.396z"></path>
<path fill="#fbe8b3" style="fill: var(--color2, #fbe8b3)" d="M10.964 15.842c-0.001 0-0.002 0-0.003 0-0.611 0-1.164 0.248-1.563 0.649l-0 0c-0.078 0.079-0.151 0.163-0.217 0.252l-0.004 0.006c-0.133 0.171-0.245 0.367-0.327 0.578l-0.006 0.016h4.213c-0.115-0.395-0.343-0.726-0.646-0.967l-0.004-0.003c-0.060-0.052-0.126-0.103-0.195-0.15l-0.008-0.005c-0.346-0.236-0.773-0.377-1.233-0.377-0.002 0-0.004 0-0.006 0h0z"></path>
<path fill="#fbe8b3" style="fill: var(--color2, #fbe8b3)" d="M8.859 18.794c0.178 0.444 0.495 0.838 0.902 1.077 0.092 0.054 0.2 0.105 0.313 0.147l0.015 0.005c0.796 0.294 1.778 0.164 2.408-0.375 0.085-0.076 0.162-0.157 0.233-0.242l0.003-0.004c0.051-0.061 0.1-0.129 0.144-0.2l0.004-0.008c0.058-0.112 0.112-0.245 0.155-0.382l0.005-0.018z"></path>
<path fill="none" stroke="#592d3d" style="stroke: var(--color4, #592d3d)" stroke-linejoin="miter" stroke-linecap="butt" stroke-miterlimit="10" stroke-width="0.3879" d="M8.72 18.052c-0.032-0.917 0.582-1.692 1.399-2.054 0.072-0.031 0.159-0.060 0.249-0.084l0.014-0.003c0.164-0.042 0.352-0.067 0.546-0.067 0.295 0 0.576 0.056 0.834 0.159l-0.015-0.005c0.114 0.044 0.209 0.089 0.3 0.14l-0.012-0.006c0.954 0.514 1.383 1.721 1.014 2.698-0.042 0.111-0.088 0.205-0.14 0.294l0.005-0.009c-0.050 0.098-0.101 0.18-0.157 0.258l0.004-0.006c-0.059 0.084-0.12 0.158-0.185 0.227l0.001-0.001c-0.070 0.069-0.145 0.134-0.225 0.192l-0.006 0.004c-0.073 0.054-0.156 0.108-0.242 0.156l-0.011 0.006c-0.885 0.42-2.081 0.291-2.794-0.369-0.069-0.073-0.134-0.152-0.193-0.235l-0.005-0.007c-0.063-0.088-0.123-0.189-0.175-0.295l-0.005-0.012c-0.104-0.206-0.171-0.446-0.184-0.701l-0-0.004c-0.011-0.082-0.017-0.178-0.018-0.275v-0.001z"></path>
<path fill="#edd494" style="fill: var(--color3, #edd494)" d="M18.873 18.384c0.014-0.489 0.216-0.973 0.488-1.336 0.073-0.102 0.149-0.192 0.231-0.276l-0 0c0.411-0.427 0.987-0.693 1.626-0.693 0.482 0 0.93 0.152 1.296 0.41l-0.007-0.005c0.079 0.056 0.148 0.11 0.214 0.168l-0.003-0.002c0.873 0.693 0.974 2.041 0.495 3.014-0.051 0.085-0.102 0.157-0.157 0.226l0.003-0.004c-0.077 0.096-0.157 0.182-0.243 0.261l-0.002 0.001c-0.655 0.576-1.675 0.715-2.502 0.401-0.133-0.050-0.245-0.105-0.352-0.168l0.011 0.006c-0.579-0.348-0.982-1.005-1.081-1.688-0.011-0.078-0.017-0.168-0.017-0.26 0-0.020 0-0.040 0.001-0.059l-0 0.003z"></path>
<path fill="#fff" style="fill: var(--color6, #fff)" d="M19.051 18.012c0.014-0.457 0.207-0.91 0.469-1.25 0.071-0.096 0.143-0.18 0.222-0.259l-0 0c0.401-0.401 0.955-0.649 1.567-0.649 0.462 0 0.891 0.141 1.246 0.383l-0.008-0.005c0.077 0.052 0.143 0.103 0.206 0.157l-0.003-0.003c0.84 0.649 0.937 1.909 0.476 2.819-0.049 0.079-0.098 0.146-0.151 0.21l0.002-0.003c-0.074 0.089-0.151 0.17-0.234 0.244l-0.002 0.002c-0.631 0.541-1.612 0.67-2.408 0.376-0.128-0.047-0.236-0.099-0.34-0.158l0.011 0.006c-0.557-0.326-0.945-0.94-1.040-1.579-0.010-0.071-0.015-0.153-0.015-0.237 0-0.020 0-0.040 0.001-0.060l-0 0.003z"></path>
<path fill="#592d3d" style="fill: var(--color4, #592d3d)" d="M21.703 18.071c0 0.218-0.177 0.396-0.396 0.396s-0.396-0.177-0.396-0.396c0-0.218 0.177-0.396 0.396-0.396s0.396 0.177 0.396 0.396z"></path>
<path fill="#fbe8b3" style="fill: var(--color2, #fbe8b3)" d="M21.308 15.856c-0.001 0-0.002 0-0.003 0-0.611 0-1.164 0.248-1.563 0.649l-0 0c-0.078 0.079-0.151 0.163-0.217 0.252l-0.004 0.006c-0.132 0.171-0.245 0.367-0.327 0.578l-0.006 0.016h4.213c-0.115-0.395-0.343-0.726-0.646-0.967l-0.004-0.003c-0.060-0.052-0.126-0.103-0.195-0.15l-0.008-0.005c-0.346-0.236-0.773-0.377-1.233-0.377-0.002 0-0.004 0-0.006 0h0z"></path>
<path fill="#fbe8b3" style="fill: var(--color2, #fbe8b3)" d="M19.203 18.808c0.178 0.445 0.495 0.838 0.902 1.077 0.092 0.054 0.2 0.105 0.313 0.147l0.015 0.005c0.796 0.294 1.778 0.164 2.408-0.376 0.085-0.076 0.162-0.156 0.233-0.242l0.003-0.004c0.051-0.061 0.1-0.129 0.144-0.2l0.004-0.008c0.058-0.113 0.113-0.245 0.155-0.383l0.005-0.017z"></path>
<path fill="none" stroke="#592d3d" style="stroke: var(--color4, #592d3d)" stroke-linejoin="miter" stroke-linecap="butt" stroke-miterlimit="10" stroke-width="0.3879" d="M19.051 18.012c0.014-0.457 0.207-0.91 0.469-1.25 0.071-0.096 0.143-0.18 0.222-0.259l-0 0c0.401-0.401 0.955-0.649 1.567-0.649 0.462 0 0.891 0.141 1.246 0.383l-0.008-0.005c0.077 0.052 0.143 0.103 0.206 0.157l-0.003-0.003c0.84 0.649 0.937 1.909 0.476 2.819-0.049 0.079-0.098 0.146-0.151 0.21l0.002-0.003c-0.074 0.089-0.151 0.17-0.234 0.244l-0.002 0.002c-0.631 0.541-1.612 0.67-2.408 0.376-0.128-0.047-0.236-0.099-0.34-0.158l0.011 0.006c-0.557-0.326-0.945-0.94-1.040-1.579-0.010-0.071-0.015-0.153-0.015-0.237 0-0.020 0-0.040 0.001-0.060l-0 0.003z"></path>
<path fill="#592d3d" style="fill: var(--color4, #592d3d); stroke: var(--color4, #592d3d)" stroke="#592d3d" stroke-linejoin="miter" stroke-linecap="butt" stroke-miterlimit="10" stroke-width="0.3879" d="M17.413 21.519c-0.503 0-0.812-0.412-1.179-0.412s-0.838 0.412-1.333 0.412-0.767-0.359-0.767-0.857c0-0.538 0.541-1.489 2.024-1.489s2.114 0.897 2.114 1.469c-0.001 0.529-0.356 0.876-0.858 0.876z"></path>
<path fill="#f28195" style="fill: var(--color10, #f28195)" d="M16.522 21.18c-0.147-0.396-0.651-0.655-1.223-0.604-0.478 0.043-0.87 0.294-1.029 0.617 0.127 0.202 0.34 0.326 0.631 0.326 0.496 0 0.966-0.412 1.334-0.412 0.106 0.004 0.204 0.030 0.292 0.075l-0.004-0.002z"></path>
<path fill="#592d3d" style="fill: var(--color4, #592d3d)" d="M14.709 20.32l0.028-0.011 0.024-0.008c0.015-0.005 0.030-0.009 0.046-0.013 0.026-0.007 0.057-0.013 0.089-0.017l0.003-0c0.031-0.004 0.067-0.007 0.104-0.007 0.030 0 0.060 0.002 0.089 0.005l-0.004-0c0.138 0.014 0.261 0.066 0.362 0.146l-0.001-0.001c0.096 0.077 0.17 0.178 0.21 0.295l0.001 0.005c0.019 0.053 0.029 0.115 0.029 0.179 0 0.056-0.008 0.111-0.024 0.162l0.001-0.004c-0.081-0.083-0.144-0.16-0.208-0.222-0.029-0.029-0.059-0.057-0.091-0.082l-0.002-0.002c-0.028-0.021-0.060-0.040-0.094-0.055l-0.003-0.001c-0.056-0.024-0.12-0.037-0.188-0.037-0.006 0-0.012 0-0.018 0l0.001-0c-0.040 0.001-0.079 0.005-0.116 0.010l0.005-0.001c-0.018 0.003-0.037 0.006-0.056 0.010l-0.027 0.006-0.013 0.003c-0.003 0-0.009 0.003-0.007 0z"></path>
<path fill="#edd494" style="fill: var(--color3, #edd494)" d="M18.060 12.908c-0.416 0.776-1.939 1.21-2.063 1.016-0.139-0.218 1.223-1.788 0.449-3.431z"></path>
<path fill="#d96e27" style="fill: var(--color11, #d96e27)" d="M25.341 11.082c-0.165-0.165-1.004 0.059-1.849-0.007-1.64-2.21-4.222-3.641-7.141-3.696l-0.009-0c-0.079-0.662-0.024-1.218-0.084-1.296-0.081-0.104-0.501 0.41-0.61 1.002-0.385-0.485-1.039-0.743-1.058-0.608-0.012 0.087 0.241 0.455 0.479 0.966-3.607 0.435-6.564 2.982-7.599 6.368-0.448 0.385-0.868 0.657-0.873 0.83-0.009 0.321 1.271 0.303 1.829 0.253v-0.002c1.96-0.065 5.786-0.445 7.642-2.356-0.178 0.617-0.507 1.072-0.444 1.169 0.097 0.151 1.239-0.168 1.618-0.751 1.552 0.633 4.509 1.395 7.079-0.522l-0.007-0.014c0.468-0.391 1.231-1.129 1.025-1.336z"></path>
<path fill="#592d3d" style="fill: var(--color4, #592d3d)" d="M23.494 11.269c-0.175 0.008-0.345 0.004-0.517-0.005s-0.342-0.022-0.513-0.041c-0.085-0.009-0.171-0.019-0.256-0.032s-0.17-0.023-0.255-0.040c-0.191-0.035-0.36-0.086-0.52-0.153l0.016 0.006c0.15-0.040 0.326-0.070 0.507-0.084l0.010-0.001c0.085-0.007 0.17-0.012 0.255-0.015l0.255-0.011c0.17-0.007 0.339-0.011 0.508-0.015s0.339-0.004 0.505 0z"></path>
<path fill="#592d3d" style="fill: var(--color4, #592d3d)" d="M7.648 13.899s0 0.008 0 0.013l-0.004 0.017-0.009 0.036c-0.007 0.024-0.014 0.049-0.021 0.074-0.015 0.050-0.032 0.101-0.050 0.154s-0.034 0.106-0.057 0.162c-0.015 0.033-0.030 0.060-0.046 0.087l0.002-0.003c-0.021 0.034-0.043 0.063-0.067 0.090l0-0c-0.053-0.047-0.095-0.106-0.119-0.174l-0.001-0.003c-0.010-0.027-0.019-0.058-0.024-0.091l-0-0.003c-0.007-0.032-0.010-0.065-0.014-0.095-0.003-0.029-0.005-0.063-0.005-0.097s0.002-0.068 0.005-0.101l-0 0.004c0.004-0.037 0.009-0.070 0.017-0.102l-0.001 0.005c0.004-0.016 0.008-0.032 0.013-0.049 0.003-0.010 0.006-0.018 0.009-0.027l-0.001 0.002c0.003-0.009 0.006-0.015 0.012-0.029z"></path>
<path fill="#c65c22" style="fill: var(--color12, #c65c22)" d="M8.428 14.895v-0.002c0.55-0.018 1.249-0.061 2.009-0.156 0.085-1.808 0.711-3.93 2.131-6.414v0l-0.22-0.105c-2.333 1.102-4.092 3.096-4.858 5.53l-0.018 0.065c-0.448 0.385-0.868 0.657-0.873 0.83-0.009 0.321 1.271 0.303 1.829 0.253z"></path>
<path fill="none" stroke="#592d3d" style="stroke: var(--color4, #592d3d)" stroke-linejoin="miter" stroke-linecap="butt" stroke-miterlimit="10" stroke-width="0.3879" d="M25.341 11.082c-0.165-0.165-1.004 0.059-1.849-0.007-1.64-2.21-4.222-3.641-7.141-3.696l-0.009-0c-0.079-0.662-0.024-1.218-0.084-1.296-0.081-0.104-0.501 0.41-0.61 1.002-0.385-0.485-1.039-0.743-1.058-0.608-0.012 0.087 0.241 0.455 0.479 0.966-3.607 0.435-6.564 2.982-7.599 6.368-0.448 0.385-0.868 0.657-0.873 0.83-0.009 0.321 1.271 0.303 1.829 0.253v-0.002c1.96-0.065 5.786-0.445 7.642-2.356-0.178 0.617-0.507 1.072-0.444 1.169 0.097 0.151 1.239-0.168 1.618-0.751 1.552 0.633 4.509 1.395 7.079-0.522l-0.007-0.014c0.468-0.391 1.231-1.129 1.025-1.336z"></path>
<path fill="#fff" style="fill: var(--color6, #fff)" d="M16.353 7.897c-0.512 0.030-0.983 0.087-1.445 0.171l0.072-0.011c-0.113 0.022-0.225 0.046-0.337 0.066s-0.223 0.052-0.335 0.078l-0.332 0.088c-0.11 0.032-0.219 0.067-0.328 0.101-0.506 0.164-0.928 0.336-1.335 0.535l0.060-0.026c-0.474 0.231-0.868 0.457-1.247 0.705l0.043-0.026c0.332-0.303 0.704-0.573 1.104-0.797l0.030-0.015c0.366-0.209 0.791-0.398 1.235-0.545l0.050-0.014c0.113-0.032 0.224-0.068 0.337-0.099s0.226-0.059 0.341-0.084 0.229-0.045 0.345-0.065 0.231-0.035 0.347-0.049c0.225-0.029 0.486-0.046 0.75-0.046 0.227 0 0.452 0.012 0.673 0.036l-0.027-0.002z"></path>
<path fill="#592d3d" style="fill: var(--color4, #592d3d)" d="M8.244 16.796l3.694-1.249c0.17-0.058 0.341-0.113 0.511-0.173l0.007-0.002c0.082-0.025 0.15-0.078 0.193-0.147l0.001-0.001c0.028-0.047 0.044-0.103 0.044-0.163 0-0.118-0.064-0.222-0.158-0.278l-0.002-0.001c-0.047-0.028-0.103-0.044-0.163-0.044-0.031 0-0.060 0.004-0.089 0.012l0.002-0.001-3.694 1.249c-0.17 0.058-0.341 0.114-0.511 0.173l-0.007 0.003c-0.082 0.025-0.15 0.078-0.193 0.147l-0.001 0.001c-0.028 0.047-0.044 0.103-0.044 0.163 0 0.118 0.064 0.222 0.158 0.278l0.002 0.001c0.047 0.028 0.103 0.044 0.163 0.044 0.031 0 0.060-0.004 0.089-0.012l-0.002 0.001z"></path>
<path fill="#592d3d" style="fill: var(--color4, #592d3d)" d="M19.962 15.354l3.617 1.458c0.166 0.067 0.332 0.139 0.5 0.202l0.007 0.003c0.073 0.029 0.185 0.005 0.249-0.032 0.096-0.057 0.16-0.161 0.16-0.279 0-0.060-0.017-0.117-0.045-0.165l0.001 0.002-0.050-0.065c-0.038-0.038-0.087-0.067-0.14-0.083l-0.002-0.001-0.411-0.167-3.205-1.293c-0.166-0.067-0.332-0.139-0.5-0.202l-0.007-0.003c-0.073-0.029-0.185-0.005-0.249 0.032-0.096 0.057-0.16 0.161-0.16 0.279 0 0.060 0.016 0.116 0.045 0.165l-0.001-0.002 0.050 0.065c0.038 0.039 0.087 0.067 0.14 0.083l0.002 0.001z"></path>
<path fill="#000" style="fill: var(--color9, #000)" opacity="0.15" d="M23.434 20.422c0.337-0.552 0.625-1.188 0.834-1.86l0.016-0.061c-0.557 1.155-1.611 2.116-2.977 2.116-1.902-0.003-3.444-1.544-3.446-3.446v-0c0-0.003 0-0.006 0-0.010 0-0.465 0.093-0.909 0.261-1.313l-0.008 0.023h6.387c0.133 0.317 0.222 0.685 0.246 1.069l0 0.010c0.024-0.259 0.036-0.523 0.036-0.789-0-0.33-0.019-0.656-0.055-0.977l0.004 0.040h-17.142c-0.032 0.281-0.051 0.607-0.051 0.937v0c0 0.153 0.005 0.305 0.012 0.455 0.046-0.28 0.119-0.531 0.217-0.768l-0.008 0.022h6.387c0.16 0.384 0.253 0.829 0.253 1.297 0 1.904-1.543 3.448-3.447 3.449h-0c-1.254 0-2.224-0.835-2.828-1.839 0.226 0.654 0.496 1.218 0.822 1.745l-0.021-0.037c0.627 0.39 1.236 0.777 2.027 0.777 2.259-0.003 4.090-1.833 4.093-4.092v-0c0-0.058 0-0.117-0.004-0.175 0.756-0.266 1.471-0.27 2.176-0.012-0.003 0.062-0.005 0.124-0.005 0.186 0.003 2.259 1.834 4.090 4.093 4.093h0c0.834 0 1.48-0.412 2.127-0.841zM17.301 16.329c-0.756-0.244-1.54-0.24-2.338 0.013-0.039-0.188-0.083-0.346-0.136-0.499l0.008 0.028h2.589c-0.043 0.122-0.086 0.275-0.119 0.432l-0.005 0.026z"></path>
<path fill="#592d3d" style="fill: var(--color4, #592d3d)" opacity="0.95" d="M7.55 15.186s0.013 1.042 0.013 1.623c0 2.082 1.308 3.77 3.391 3.77s3.77-1.689 3.77-3.771c0-0.589-0.135-1.147-0.376-1.643l0.010 0.022z"></path>
<path fill="#592d3d" style="fill: var(--color4, #592d3d)" opacity="0.95" d="M17.904 15.186c-0.231 0.474-0.366 1.032-0.366 1.621 0 2.082 1.688 3.77 3.77 3.771h0c2.082 0 3.476-1.688 3.476-3.77 0-0.582-0.072-1.623-0.072-1.623z"></path>
<path fill="#fff" style="fill: var(--color6, #fff)" opacity="0.25" d="M10.343 20.262l3.978-3.978c-0.096-0.213-0.204-0.397-0.329-0.566l0.006 0.008-4.213 4.214c0.162 0.119 0.345 0.227 0.539 0.315l0.019 0.008z"></path>
<path fill="none" stroke="#592d3d" style="stroke: var(--color4, #592d3d)" stroke-linejoin="miter" stroke-linecap="butt" stroke-miterlimit="10" stroke-width="0.6465" d="M14.735 16.405c0.954-0.388 1.892-0.401 2.812 0"></path>
<path fill="#fff" style="fill: var(--color6, #fff)" d="M8.866 16.315c0.067 0.21-0.192 0.372-0.386 0.404-0.194 0-0.323-0.129-0.388-0.291-0.032-0.162 0-0.323 0.129-0.42 0.162-0.065 0.388-0.129 0.531 0.036 0.070 0.069 0.113 0.164 0.113 0.27 0 0 0 0.001 0 0.001v-0z"></path>
<path fill="#fff" style="fill: var(--color6, #fff)" d="M9.212 16.192c-0.020 0.14-0.214 0.14-0.246 0.011 0-0.097 0.032-0.129 0.124-0.133 0.067 0 0.122 0.055 0.122 0.122v0z"></path>
<path fill="#fff" style="fill: var(--color6, #fff)" opacity="0.25" d="M20.855 20.006l3.435-3.435c-0.022-0.142-0.049-0.265-0.083-0.384l0.005 0.021-3.719 3.72c0.098 0.029 0.22 0.056 0.344 0.076l0.017 0.002z"></path>
<path fill="#fff" style="fill: var(--color6, #fff)" d="M19.093 16.347c0.067 0.21-0.192 0.372-0.386 0.404-0.194 0-0.323-0.129-0.388-0.291-0.032-0.162 0-0.323 0.129-0.42 0.162-0.065 0.388-0.129 0.532 0.036 0.070 0.069 0.113 0.164 0.113 0.269 0 0 0 0.001 0 0.001v-0z"></path>
<path fill="#fff" style="fill: var(--color6, #fff)" d="M19.438 16.223c-0.020 0.14-0.214 0.14-0.246 0.011 0-0.097 0.032-0.129 0.124-0.133 0 0 0 0 0 0 0.067 0 0.122 0.054 0.122 0.122 0 0 0 0 0 0v-0z"></path>
<path fill="none" stroke="#592d3d" style="stroke: var(--color4, #592d3d)" stroke-linejoin="miter" stroke-linecap="butt" stroke-miterlimit="10" stroke-width="0.6465" d="M7.55 15.186s-0.011 1.024 0.013 1.623c0.084 2.080 1.308 3.77 3.391 3.77s3.77-1.689 3.77-3.771c0-0.589-0.135-1.147-0.376-1.643l0.010 0.022z"></path>
<path fill="none" stroke="#592d3d" style="stroke: var(--color4, #592d3d)" stroke-linejoin="miter" stroke-linecap="butt" stroke-miterlimit="10" stroke-width="0.6465" d="M17.904 15.186c-0.231 0.474-0.366 1.032-0.366 1.621 0 2.082 1.688 3.77 3.77 3.771h0c2.082 0 3.476-1.666 3.476-3.748 0-0.582-0.072-1.645-0.072-1.645z"></path>
<path fill="none" stroke="#592d3d" style="stroke: var(--color4, #592d3d)" stroke-linejoin="miter" stroke-linecap="butt" stroke-miterlimit="10" stroke-width="0.6465" d="M13.677 15.186h4.908"></path>
</symbol>
<symbol id="tree_primereact" viewBox="0 0 32 32">
<path d="M30.5 24h-0.5v-6.5c0-1.93-1.57-3.5-3.5-3.5h-8.5v-4h0.5c0.825 0 1.5-0.675 1.5-1.5v-5c0-0.825-0.675-1.5-1.5-1.5h-5c-0.825 0-1.5 0.675-1.5 1.5v5c0 0.825 0.675 1.5 1.5 1.5h0.5v4h-8.5c-1.93 0-3.5 1.57-3.5 3.5v6.5h-0.5c-0.825 0-1.5 0.675-1.5 1.5v5c0 0.825 0.675 1.5 1.5 1.5h5c0.825 0 1.5-0.675 1.5-1.5v-5c0-0.825-0.675-1.5-1.5-1.5h-0.5v-6h8v6h-0.5c-0.825 0-1.5 0.675-1.5 1.5v5c0 0.825 0.675 1.5 1.5 1.5h5c0.825 0 1.5-0.675 1.5-1.5v-5c0-0.825-0.675-1.5-1.5-1.5h-0.5v-6h8v6h-0.5c-0.825 0-1.5 0.675-1.5 1.5v5c0 0.825 0.675 1.5 1.5 1.5h5c0.825 0 1.5-0.675 1.5-1.5v-5c0-0.825-0.675-1.5-1.5-1.5zM6 30h-4v-4h4v4zM18 30h-4v-4h4v4zM14 8v-4h4v4h-4zM30 30h-4v-4h4v4z"></path>
</symbol>
</defs>
</svg>
